<svg xmlns="http://www.w3.org/2000/svg" version="1.1" xmlns:xlink="http://www.w3.org/1999/xlink" xmlns:svgjs="http://svgjs.dev/svgjs" width="1000" height="1000" preserveAspectRatio="none" viewBox="0 0 1000 1000"><g mask="url(&quot;#SvgjsMask1559&quot;)" fill="none"><g mask="url(&quot;#SvgjsMask1560&quot;)"><path d="M62.5 487.5L87.5 512.5M37.5 512.5L62.5 512.5M287.5 512.5L312.5 487.5L337.5 487.5M-12.5 512.5L12.5 512.5L37.5 512.5L62.5 487.5L87.5 487.5L112.5 487.5L137.5 512.5L162.5 512.5L187.5 512.5L212.5 512.5L237.5 512.5L262.5 512.5L287.5 512.5L312.5 512.5L337.5 512.5" stroke="rgba(0, 0, 0, 1)" stroke-width="4.17"></path><path d="M331.25 512.5 a6.25 6.25 0 1 0 12.5 0 a6.25 6.25 0 1 0 -12.5 0zM81.25 512.5 a6.25 6.25 0 1 0 12.5 0 a6.25 6.25 0 1 0 -12.5 0zM56.25 512.5 a6.25 6.25 0 1 0 12.5 0 a6.25 6.25 0 1 0 -12.5 0zM331.25 487.5 a6.25 6.25 0 1 0 12.5 0 a6.25 6.25 0 1 0 -12.5 0z" fill="rgba(0, 0, 0, 1)"></path><path d="M137.5 462.5L162.5 487.5M-12.5 487.5L12.5 487.5L37.5 487.5L62.5 462.5L87.5 462.5L112.5 462.5L137.5 462.5L162.5 462.5L187.5 487.5" stroke="rgba(97, 102, 107, 1)" stroke-width="4.17"></path><path d="M181.25 487.5 a6.25 6.25 0 1 0 12.5 0 a6.25 6.25 0 1 0 -12.5 0zM156.25 487.5 a6.25 6.25 0 1 0 12.5 0 a6.25 6.25 0 1 0 -12.5 0z" fill="rgba(97, 102, 107, 1)"></path><path d="M387.5 537.5L412.5 512.5L437.5 512.5M412.5 537.5L437.5 562.5M362.5 537.5L387.5 562.5M337.5 537.5L362.5 562.5L387.5 587.5L412.5 587.5L437.5 587.5M-12.5 537.5L12.5 537.5L37.5 537.5L62.5 537.5L87.5 537.5L112.5 537.5L137.5 537.5L162.5 537.5L187.5 537.5L212.5 537.5L237.5 537.5L262.5 537.5L287.5 537.5L312.5 537.5L337.5 537.5L362.5 537.5L387.5 537.5L412.5 537.5L437.5 537.5L462.5 537.5" stroke="rgba(97, 102, 107, 1)" stroke-width="4.17"></path><path d="M456.25 537.5 a6.25 6.25 0 1 0 12.5 0 a6.25 6.25 0 1 0 -12.5 0zM431.25 512.5 a6.25 6.25 0 1 0 12.5 0 a6.25 6.25 0 1 0 -12.5 0zM431.25 562.5 a6.25 6.25 0 1 0 12.5 0 a6.25 6.25 0 1 0 -12.5 0zM381.25 562.5 a6.25 6.25 0 1 0 12.5 0 a6.25 6.25 0 1 0 -12.5 0zM431.25 587.5 a6.25 6.25 0 1 0 12.5 0 a6.25 6.25 0 1 0 -12.5 0z" fill="rgba(97, 102, 107, 1)"></path><path d="M87.5 437.5L112.5 412.5L137.5 412.5L162.5 412.5M262.5 437.5L287.5 412.5M237.5 437.5L262.5 462.5M-12.5 462.5L12.5 462.5L37.5 462.5L62.5 437.5L87.5 437.5L112.5 437.5L137.5 437.5L162.5 437.5L187.5 437.5L212.5 437.5L237.5 437.5L262.5 437.5L287.5 437.5" stroke="rgba(0, 0, 0, 1)" stroke-width="4.17"></path><path d="M281.25 437.5 a6.25 6.25 0 1 0 12.5 0 a6.25 6.25 0 1 0 -12.5 0zM156.25 412.5 a6.25 6.25 0 1 0 12.5 0 a6.25 6.25 0 1 0 -12.5 0zM281.25 412.5 a6.25 6.25 0 1 0 12.5 0 a6.25 6.25 0 1 0 -12.5 0zM256.25 462.5 a6.25 6.25 0 1 0 12.5 0 a6.25 6.25 0 1 0 -12.5 0z" fill="rgba(0, 0, 0, 1)"></path><path d="M262.5 562.5L287.5 587.5L312.5 587.5L337.5 587.5L362.5 587.5M62.5 562.5L87.5 587.5M187.5 562.5L212.5 587.5L237.5 587.5L262.5 587.5M-12.5 562.5L12.5 562.5L37.5 562.5L62.5 562.5L87.5 562.5L112.5 562.5L137.5 562.5L162.5 562.5L187.5 562.5L212.5 562.5L237.5 562.5L262.5 562.5L287.5 562.5L312.5 562.5" stroke="rgba(0, 0, 0, 1)" stroke-width="4.17"></path><path d="M306.25 562.5 a6.25 6.25 0 1 0 12.5 0 a6.25 6.25 0 1 0 -12.5 0zM356.25 587.5 a6.25 6.25 0 1 0 12.5 0 a6.25 6.25 0 1 0 -12.5 0zM81.25 587.5 a6.25 6.25 0 1 0 12.5 0 a6.25 6.25 0 1 0 -12.5 0zM256.25 587.5 a6.25 6.25 0 1 0 12.5 0 a6.25 6.25 0 1 0 -12.5 0z" fill="rgba(0, 0, 0, 1)"></path><path d="M-12.5 437.5L12.5 437.5L37.5 437.5L62.5 412.5" stroke="rgba(97, 102, 107, 1)" stroke-width="4.17"></path><path d="M56.25 412.5 a6.25 6.25 0 1 0 12.5 0 a6.25 6.25 0 1 0 -12.5 0z" fill="rgba(97, 102, 107, 1)"></path><path d="M-12.5 587.5L12.5 587.5L37.5 587.5" stroke="rgba(97, 102, 107, 1)" stroke-width="4.17"></path><path d="M31.25 587.5 a6.25 6.25 0 1 0 12.5 0 a6.25 6.25 0 1 0 -12.5 0z" fill="rgba(97, 102, 107, 1)"></path><path d="M212.5 612.5L237.5 637.5L262.5 637.5M137.5 612.5L162.5 637.5M162.5 612.5L187.5 587.5M-12.5 612.5L12.5 612.5L37.5 612.5L62.5 612.5L87.5 612.5L112.5 612.5L137.5 612.5L162.5 612.5L187.5 612.5L212.5 612.5L237.5 612.5L262.5 612.5L287.5 612.5" stroke="rgba(97, 102, 107, 1)" stroke-width="4.17"></path><path d="M281.25 612.5 a6.25 6.25 0 1 0 12.5 0 a6.25 6.25 0 1 0 -12.5 0zM256.25 637.5 a6.25 6.25 0 1 0 12.5 0 a6.25 6.25 0 1 0 -12.5 0zM156.25 637.5 a6.25 6.25 0 1 0 12.5 0 a6.25 6.25 0 1 0 -12.5 0zM181.25 587.5 a6.25 6.25 0 1 0 12.5 0 a6.25 6.25 0 1 0 -12.5 0z" fill="rgba(97, 102, 107, 1)"></path><path d="M12.5 387.5L37.5 412.5M-12.5 387.5L12.5 387.5L37.5 387.5L62.5 387.5L87.5 387.5L112.5 387.5L137.5 387.5L162.5 387.5L187.5 387.5" stroke="rgba(97, 102, 107, 1)" stroke-width="4.17"></path><path d="M181.25 387.5 a6.25 6.25 0 1 0 12.5 0 a6.25 6.25 0 1 0 -12.5 0zM31.25 412.5 a6.25 6.25 0 1 0 12.5 0 a6.25 6.25 0 1 0 -12.5 0z" fill="rgba(97, 102, 107, 1)"></path><path d="M-12.5 637.5L12.5 637.5L37.5 637.5L62.5 637.5L87.5 637.5" stroke="rgba(0, 0, 0, 1)" stroke-width="4.17"></path><path d="M81.25 637.5 a6.25 6.25 0 1 0 12.5 0 a6.25 6.25 0 1 0 -12.5 0z" fill="rgba(0, 0, 0, 1)"></path><path d="M-12.5 362.5L12.5 362.5L37.5 362.5L62.5 362.5L87.5 362.5" stroke="rgba(97, 102, 107, 1)" stroke-width="4.17"></path><path d="M81.25 362.5 a6.25 6.25 0 1 0 12.5 0 a6.25 6.25 0 1 0 -12.5 0z" fill="rgba(97, 102, 107, 1)"></path><path d="M-12.5 662.5L12.5 662.5L37.5 662.5" stroke="rgba(0, 0, 0, 1)" stroke-width="4.17"></path><path d="M31.25 662.5 a6.25 6.25 0 1 0 12.5 0 a6.25 6.25 0 1 0 -12.5 0z" fill="rgba(0, 0, 0, 1)"></path><path d="M162.5 362.5L187.5 337.5M87.5 337.5L112.5 312.5L137.5 312.5M112.5 337.5L137.5 337.5M-12.5 337.5L12.5 337.5L37.5 337.5L62.5 337.5L87.5 337.5L112.5 337.5L137.5 362.5L162.5 362.5L187.5 362.5" stroke="rgba(97, 102, 107, 1)" stroke-width="4.17"></path><path d="M181.25 362.5 a6.25 6.25 0 1 0 12.5 0 a6.25 6.25 0 1 0 -12.5 0zM181.25 337.5 a6.25 6.25 0 1 0 12.5 0 a6.25 6.25 0 1 0 -12.5 0zM131.25 312.5 a6.25 6.25 0 1 0 12.5 0 a6.25 6.25 0 1 0 -12.5 0zM131.25 337.5 a6.25 6.25 0 1 0 12.5 0 a6.25 6.25 0 1 0 -12.5 0z" fill="rgba(97, 102, 107, 1)"></path><path d="M37.5 687.5L62.5 712.5L87.5 712.5L112.5 712.5L137.5 712.5M387.5 687.5L412.5 662.5L437.5 662.5M262.5 687.5L287.5 712.5L312.5 712.5L337.5 712.5L362.5 712.5M62.5 687.5L87.5 662.5M-12.5 687.5L12.5 687.5L37.5 687.5L62.5 687.5L87.5 687.5L112.5 662.5L137.5 662.5L162.5 662.5L187.5 662.5L212.5 662.5L237.5 687.5L262.5 687.5L287.5 687.5L312.5 687.5L337.5 687.5L362.5 687.5L387.5 687.5L412.5 687.5L437.5 687.5" stroke="rgba(0, 0, 0, 1)" stroke-width="4.17"></path><path d="M431.25 687.5 a6.25 6.25 0 1 0 12.5 0 a6.25 6.25 0 1 0 -12.5 0zM131.25 712.5 a6.25 6.25 0 1 0 12.5 0 a6.25 6.25 0 1 0 -12.5 0zM431.25 662.5 a6.25 6.25 0 1 0 12.5 0 a6.25 6.25 0 1 0 -12.5 0zM356.25 712.5 a6.25 6.25 0 1 0 12.5 0 a6.25 6.25 0 1 0 -12.5 0zM81.25 662.5 a6.25 6.25 0 1 0 12.5 0 a6.25 6.25 0 1 0 -12.5 0z" fill="rgba(0, 0, 0, 1)"></path><path d="M62.5 287.5L87.5 312.5M12.5 312.5L37.5 312.5M-12.5 312.5L12.5 312.5L37.5 287.5L62.5 287.5L87.5 287.5L112.5 287.5" stroke="rgba(97, 102, 107, 1)" stroke-width="4.17"></path><path d="M106.25 287.5 a6.25 6.25 0 1 0 12.5 0 a6.25 6.25 0 1 0 -12.5 0zM81.25 312.5 a6.25 6.25 0 1 0 12.5 0 a6.25 6.25 0 1 0 -12.5 0zM31.25 312.5 a6.25 6.25 0 1 0 12.5 0 a6.25 6.25 0 1 0 -12.5 0z" fill="rgba(97, 102, 107, 1)"></path><path d="M187.5 237.5L212.5 262.5L237.5 262.5M137.5 237.5L162.5 262.5M87.5 262.5L112.5 262.5L137.5 262.5L162.5 287.5L187.5 287.5M-12.5 287.5L12.5 287.5L37.5 262.5L62.5 262.5L87.5 262.5L112.5 237.5L137.5 237.5L162.5 237.5L187.5 237.5L212.5 237.5" stroke="rgba(0, 0, 0, 1)" stroke-width="4.17"></path><path d="M206.25 237.5 a6.25 6.25 0 1 0 12.5 0 a6.25 6.25 0 1 0 -12.5 0zM231.25 262.5 a6.25 6.25 0 1 0 12.5 0 a6.25 6.25 0 1 0 -12.5 0zM156.25 262.5 a6.25 6.25 0 1 0 12.5 0 a6.25 6.25 0 1 0 -12.5 0zM181.25 287.5 a6.25 6.25 0 1 0 12.5 0 a6.25 6.25 0 1 0 -12.5 0z" fill="rgba(0, 0, 0, 1)"></path><path d="M337.5 812.5L362.5 837.5L387.5 837.5L412.5 837.5L437.5 837.5M137.5 762.5L162.5 787.5L187.5 812.5L212.5 812.5L237.5 812.5L262.5 812.5M12.5 762.5L37.5 737.5L62.5 737.5L87.5 737.5L112.5 737.5M287.5 787.5L312.5 762.5L337.5 762.5L362.5 787.5M-12.5 737.5L12.5 762.5L37.5 762.5L62.5 762.5L87.5 762.5L112.5 762.5L137.5 762.5L162.5 762.5L187.5 787.5L212.5 787.5L237.5 787.5L262.5 787.5L287.5 787.5L312.5 787.5L337.5 812.5L362.5 812.5" stroke="rgba(0, 0, 0, 1)" stroke-width="4.17"></path><path d="M356.25 812.5 a6.25 6.25 0 1 0 12.5 0 a6.25 6.25 0 1 0 -12.5 0zM431.25 837.5 a6.25 6.25 0 1 0 12.5 0 a6.25 6.25 0 1 0 -12.5 0zM256.25 812.5 a6.25 6.25 0 1 0 12.5 0 a6.25 6.25 0 1 0 -12.5 0zM106.25 737.5 a6.25 6.25 0 1 0 12.5 0 a6.25 6.25 0 1 0 -12.5 0zM356.25 787.5 a6.25 6.25 0 1 0 12.5 0 a6.25 6.25 0 1 0 -12.5 0z" fill="rgba(0, 0, 0, 1)"></path><path d="M237.5 212.5L262.5 187.5L287.5 187.5L312.5 187.5L337.5 187.5M62.5 237.5L87.5 212.5L112.5 187.5L137.5 187.5M187.5 212.5L212.5 187.5L237.5 187.5M-12.5 262.5L12.5 262.5L37.5 237.5L62.5 237.5L87.5 237.5L112.5 212.5L137.5 212.5L162.5 212.5L187.5 212.5L212.5 212.5L237.5 212.5L262.5 212.5L287.5 237.5" stroke="rgba(0, 0, 0, 1)" stroke-width="4.17"></path><path d="M281.25 237.5 a6.25 6.25 0 1 0 12.5 0 a6.25 6.25 0 1 0 -12.5 0zM331.25 187.5 a6.25 6.25 0 1 0 12.5 0 a6.25 6.25 0 1 0 -12.5 0zM131.25 187.5 a6.25 6.25 0 1 0 12.5 0 a6.25 6.25 0 1 0 -12.5 0zM231.25 187.5 a6.25 6.25 0 1 0 12.5 0 a6.25 6.25 0 1 0 -12.5 0z" fill="rgba(0, 0, 0, 1)"></path></g></g><defs><mask id="SvgjsMask1559"><rect width="1000" height="1000" fill="#ffffff"></rect></mask><mask id="SvgjsMask1560"><rect width="1000" height="1000" fill="white"></rect><path d="M334.37 512.5 a3.13 3.13 0 1 0 6.26 0 a3.13 3.13 0 1 0 -6.26 0zM84.37 512.5 a3.13 3.13 0 1 0 6.26 0 a3.13 3.13 0 1 0 -6.26 0zM59.37 512.5 a3.13 3.13 0 1 0 6.26 0 a3.13 3.13 0 1 0 -6.26 0zM334.37 487.5 a3.13 3.13 0 1 0 6.26 0 a3.13 3.13 0 1 0 -6.26 0z" fill="black"></path><path d="M184.37 487.5 a3.13 3.13 0 1 0 6.26 0 a3.13 3.13 0 1 0 -6.26 0zM159.37 487.5 a3.13 3.13 0 1 0 6.26 0 a3.13 3.13 0 1 0 -6.26 0z" fill="black"></path><path d="M459.37 537.5 a3.13 3.13 0 1 0 6.26 0 a3.13 3.13 0 1 0 -6.26 0zM434.37 512.5 a3.13 3.13 0 1 0 6.26 0 a3.13 3.13 0 1 0 -6.26 0zM434.37 562.5 a3.13 3.13 0 1 0 6.26 0 a3.13 3.13 0 1 0 -6.26 0zM384.37 562.5 a3.13 3.13 0 1 0 6.26 0 a3.13 3.13 0 1 0 -6.26 0zM434.37 587.5 a3.13 3.13 0 1 0 6.26 0 a3.13 3.13 0 1 0 -6.26 0z" fill="black"></path><path d="M284.37 437.5 a3.13 3.13 0 1 0 6.26 0 a3.13 3.13 0 1 0 -6.26 0zM159.37 412.5 a3.13 3.13 0 1 0 6.26 0 a3.13 3.13 0 1 0 -6.26 0zM284.37 412.5 a3.13 3.13 0 1 0 6.26 0 a3.13 3.13 0 1 0 -6.26 0zM259.37 462.5 a3.13 3.13 0 1 0 6.26 0 a3.13 3.13 0 1 0 -6.26 0z" fill="black"></path><path d="M309.37 562.5 a3.13 3.13 0 1 0 6.26 0 a3.13 3.13 0 1 0 -6.26 0zM359.37 587.5 a3.13 3.13 0 1 0 6.26 0 a3.13 3.13 0 1 0 -6.26 0zM84.37 587.5 a3.13 3.13 0 1 0 6.26 0 a3.13 3.13 0 1 0 -6.26 0zM259.37 587.5 a3.13 3.13 0 1 0 6.26 0 a3.13 3.13 0 1 0 -6.26 0z" fill="black"></path><path d="M59.37 412.5 a3.13 3.13 0 1 0 6.26 0 a3.13 3.13 0 1 0 -6.26 0z" fill="black"></path><path d="M34.37 587.5 a3.13 3.13 0 1 0 6.26 0 a3.13 3.13 0 1 0 -6.26 0z" fill="black"></path><path d="M284.37 612.5 a3.13 3.13 0 1 0 6.26 0 a3.13 3.13 0 1 0 -6.26 0zM259.37 637.5 a3.13 3.13 0 1 0 6.26 0 a3.13 3.13 0 1 0 -6.26 0zM159.37 637.5 a3.13 3.13 0 1 0 6.26 0 a3.13 3.13 0 1 0 -6.26 0zM184.37 587.5 a3.13 3.13 0 1 0 6.26 0 a3.13 3.13 0 1 0 -6.26 0z" fill="black"></path><path d="M184.37 387.5 a3.13 3.13 0 1 0 6.26 0 a3.13 3.13 0 1 0 -6.26 0zM34.37 412.5 a3.13 3.13 0 1 0 6.26 0 a3.13 3.13 0 1 0 -6.26 0z" fill="black"></path><path d="M84.37 637.5 a3.13 3.13 0 1 0 6.26 0 a3.13 3.13 0 1 0 -6.26 0z" fill="black"></path><path d="M84.37 362.5 a3.13 3.13 0 1 0 6.26 0 a3.13 3.13 0 1 0 -6.26 0z" fill="black"></path><path d="M34.37 662.5 a3.13 3.13 0 1 0 6.26 0 a3.13 3.13 0 1 0 -6.26 0z" fill="black"></path><path d="M184.37 362.5 a3.13 3.13 0 1 0 6.26 0 a3.13 3.13 0 1 0 -6.26 0zM184.37 337.5 a3.13 3.13 0 1 0 6.26 0 a3.13 3.13 0 1 0 -6.26 0zM134.37 312.5 a3.13 3.13 0 1 0 6.26 0 a3.13 3.13 0 1 0 -6.26 0zM134.37 337.5 a3.13 3.13 0 1 0 6.26 0 a3.13 3.13 0 1 0 -6.26 0z" fill="black"></path><path d="M434.37 687.5 a3.13 3.13 0 1 0 6.26 0 a3.13 3.13 0 1 0 -6.26 0zM134.37 712.5 a3.13 3.13 0 1 0 6.26 0 a3.13 3.13 0 1 0 -6.26 0zM434.37 662.5 a3.13 3.13 0 1 0 6.26 0 a3.13 3.13 0 1 0 -6.26 0zM359.37 712.5 a3.13 3.13 0 1 0 6.26 0 a3.13 3.13 0 1 0 -6.26 0zM84.37 662.5 a3.13 3.13 0 1 0 6.26 0 a3.13 3.13 0 1 0 -6.26 0z" fill="black"></path><path d="M109.37 287.5 a3.13 3.13 0 1 0 6.26 0 a3.13 3.13 0 1 0 -6.26 0zM84.37 312.5 a3.13 3.13 0 1 0 6.26 0 a3.13 3.13 0 1 0 -6.26 0zM34.37 312.5 a3.13 3.13 0 1 0 6.26 0 a3.13 3.13 0 1 0 -6.26 0z" fill="black"></path><path d="M209.37 237.5 a3.13 3.13 0 1 0 6.26 0 a3.13 3.13 0 1 0 -6.26 0zM234.37 262.5 a3.13 3.13 0 1 0 6.26 0 a3.13 3.13 0 1 0 -6.26 0zM159.37 262.5 a3.13 3.13 0 1 0 6.26 0 a3.13 3.13 0 1 0 -6.26 0zM184.37 287.5 a3.13 3.13 0 1 0 6.26 0 a3.13 3.13 0 1 0 -6.26 0z" fill="black"></path><path d="M359.37 812.5 a3.13 3.13 0 1 0 6.26 0 a3.13 3.13 0 1 0 -6.26 0zM434.37 837.5 a3.13 3.13 0 1 0 6.26 0 a3.13 3.13 0 1 0 -6.26 0zM259.37 812.5 a3.13 3.13 0 1 0 6.26 0 a3.13 3.13 0 1 0 -6.26 0zM109.37 737.5 a3.13 3.13 0 1 0 6.26 0 a3.13 3.13 0 1 0 -6.26 0zM359.37 787.5 a3.13 3.13 0 1 0 6.26 0 a3.13 3.13 0 1 0 -6.26 0z" fill="black"></path><path d="M284.37 237.5 a3.13 3.13 0 1 0 6.26 0 a3.13 3.13 0 1 0 -6.26 0zM334.37 187.5 a3.13 3.13 0 1 0 6.26 0 a3.13 3.13 0 1 0 -6.26 0zM134.37 187.5 a3.13 3.13 0 1 0 6.26 0 a3.13 3.13 0 1 0 -6.26 0zM234.37 187.5 a3.13 3.13 0 1 0 6.26 0 a3.13 3.13 0 1 0 -6.26 0z" fill="black"></path></mask></defs></svg>