<svg xmlns="http://www.w3.org/2000/svg" version="1.1" xmlns:xlink="http://www.w3.org/1999/xlink" xmlns:svgjs="http://svgjs.dev/svgjs" width="900" height="1000" preserveAspectRatio="none" viewBox="0 0 900 1000"><g mask="url(&quot;#SvgjsMask1591&quot;)" fill="none"><g mask="url(&quot;#SvgjsMask1592&quot;)"><path d="M462.5 -12.5L462.5 12.5L462.5 37.5L462.5 62.5L462.5 87.5L462.5 112.5L462.5 137.5" stroke="rgba(97, 102, 107, 1)" stroke-width="4.17"></path><path d="M456.25 137.5 a6.25 6.25 0 1 0 12.5 0 a6.25 6.25 0 1 0 -12.5 0z" fill="rgba(97, 102, 107, 1)"></path><path d="M437.5 -12.5L437.5 12.5L437.5 37.5L437.5 62.5L437.5 87.5L437.5 112.5L437.5 137.5L437.5 162.5" stroke="rgba(97, 102, 107, 1)" stroke-width="4.17"></path><path d="M431.25 162.5 a6.25 6.25 0 1 0 12.5 0 a6.25 6.25 0 1 0 -12.5 0z" fill="rgba(97, 102, 107, 1)"></path><path d="M487.5 287.5L462.5 312.5L462.5 337.5L462.5 362.5L462.5 387.5L462.5 412.5L462.5 437.5M487.5 262.5L462.5 287.5L437.5 312.5M487.5 187.5L462.5 212.5L462.5 237.5L462.5 262.5M487.5 312.5L512.5 337.5L512.5 362.5L512.5 387.5L512.5 412.5L512.5 437.5L512.5 462.5M487.5 -12.5L487.5 12.5L487.5 37.5L487.5 62.5L487.5 87.5L487.5 112.5L487.5 137.5L487.5 162.5L487.5 187.5L487.5 212.5L487.5 237.5L487.5 262.5L487.5 287.5L487.5 312.5L487.5 337.5L487.5 362.5L487.5 387.5L487.5 412.5" stroke="rgba(97, 102, 107, 1)" stroke-width="4.17"></path><path d="M481.25 412.5 a6.25 6.25 0 1 0 12.5 0 a6.25 6.25 0 1 0 -12.5 0zM456.25 437.5 a6.25 6.25 0 1 0 12.5 0 a6.25 6.25 0 1 0 -12.5 0zM431.25 312.5 a6.25 6.25 0 1 0 12.5 0 a6.25 6.25 0 1 0 -12.5 0zM456.25 262.5 a6.25 6.25 0 1 0 12.5 0 a6.25 6.25 0 1 0 -12.5 0zM506.25 462.5 a6.25 6.25 0 1 0 12.5 0 a6.25 6.25 0 1 0 -12.5 0z" fill="rgba(97, 102, 107, 1)"></path><path d="M412.5 112.5L387.5 137.5L387.5 162.5L387.5 187.5M412.5 -12.5L412.5 12.5L412.5 37.5L412.5 62.5L412.5 87.5L412.5 112.5L412.5 137.5L412.5 162.5L412.5 187.5" stroke="rgba(0, 0, 0, 1)" stroke-width="4.17"></path><path d="M406.25 187.5 a6.25 6.25 0 1 0 12.5 0 a6.25 6.25 0 1 0 -12.5 0zM381.25 187.5 a6.25 6.25 0 1 0 12.5 0 a6.25 6.25 0 1 0 -12.5 0z" fill="rgba(0, 0, 0, 1)"></path><path d="M512.5 -12.5L512.5 12.5L512.5 37.5L512.5 62.5L512.5 87.5L512.5 112.5L512.5 137.5L512.5 162.5L512.5 187.5L512.5 212.5L512.5 237.5L512.5 262.5" stroke="rgba(0, 0, 0, 1)" stroke-width="4.17"></path><path d="M506.25 262.5 a6.25 6.25 0 1 0 12.5 0 a6.25 6.25 0 1 0 -12.5 0z" fill="rgba(0, 0, 0, 1)"></path><path d="M387.5 -12.5L387.5 12.5L387.5 37.5L387.5 62.5L387.5 87.5" stroke="rgba(0, 0, 0, 1)" stroke-width="4.17"></path><path d="M381.25 87.5 a6.25 6.25 0 1 0 12.5 0 a6.25 6.25 0 1 0 -12.5 0z" fill="rgba(0, 0, 0, 1)"></path><path d="M537.5 162.5L562.5 187.5M537.5 212.5L562.5 237.5L562.5 262.5L587.5 287.5M537.5 112.5L562.5 137.5L562.5 162.5L587.5 187.5M537.5 -12.5L537.5 12.5L537.5 37.5L537.5 62.5L537.5 87.5L537.5 112.5L537.5 137.5L537.5 162.5L537.5 187.5L537.5 212.5L537.5 237.5" stroke="rgba(97, 102, 107, 1)" stroke-width="4.17"></path><path d="M531.25 237.5 a6.25 6.25 0 1 0 12.5 0 a6.25 6.25 0 1 0 -12.5 0zM556.25 187.5 a6.25 6.25 0 1 0 12.5 0 a6.25 6.25 0 1 0 -12.5 0zM581.25 287.5 a6.25 6.25 0 1 0 12.5 0 a6.25 6.25 0 1 0 -12.5 0zM581.25 187.5 a6.25 6.25 0 1 0 12.5 0 a6.25 6.25 0 1 0 -12.5 0z" fill="rgba(97, 102, 107, 1)"></path><path d="M337.5 412.5L362.5 437.5L362.5 462.5M362.5 237.5L387.5 262.5M337.5 362.5L362.5 387.5L362.5 412.5L387.5 437.5M362.5 212.5L387.5 237.5L412.5 262.5L412.5 287.5L412.5 312.5M362.5 -12.5L362.5 12.5L362.5 37.5L362.5 62.5L362.5 87.5L362.5 112.5L362.5 137.5L362.5 162.5L362.5 187.5L362.5 212.5L362.5 237.5L362.5 262.5L362.5 287.5L362.5 312.5L337.5 337.5L337.5 362.5L337.5 387.5L337.5 412.5L337.5 437.5" stroke="rgba(0, 0, 0, 1)" stroke-width="4.17"></path><path d="M331.25 437.5 a6.25 6.25 0 1 0 12.5 0 a6.25 6.25 0 1 0 -12.5 0zM356.25 462.5 a6.25 6.25 0 1 0 12.5 0 a6.25 6.25 0 1 0 -12.5 0zM381.25 262.5 a6.25 6.25 0 1 0 12.5 0 a6.25 6.25 0 1 0 -12.5 0zM381.25 437.5 a6.25 6.25 0 1 0 12.5 0 a6.25 6.25 0 1 0 -12.5 0zM406.25 312.5 a6.25 6.25 0 1 0 12.5 0 a6.25 6.25 0 1 0 -12.5 0z" fill="rgba(0, 0, 0, 1)"></path><path d="M562.5 62.5L587.5 87.5L587.5 112.5M562.5 -12.5L562.5 12.5L562.5 37.5L562.5 62.5L562.5 87.5" stroke="rgba(97, 102, 107, 1)" stroke-width="4.17"></path><path d="M556.25 87.5 a6.25 6.25 0 1 0 12.5 0 a6.25 6.25 0 1 0 -12.5 0zM581.25 112.5 a6.25 6.25 0 1 0 12.5 0 a6.25 6.25 0 1 0 -12.5 0z" fill="rgba(97, 102, 107, 1)"></path><path d="M337.5 137.5L312.5 162.5L312.5 187.5L312.5 212.5M337.5 -12.5L337.5 12.5L337.5 37.5L337.5 62.5L337.5 87.5L337.5 112.5L337.5 137.5L337.5 162.5L337.5 187.5L337.5 212.5L337.5 237.5L337.5 262.5" stroke="rgba(0, 0, 0, 1)" stroke-width="4.17"></path><path d="M331.25 262.5 a6.25 6.25 0 1 0 12.5 0 a6.25 6.25 0 1 0 -12.5 0zM306.25 212.5 a6.25 6.25 0 1 0 12.5 0 a6.25 6.25 0 1 0 -12.5 0z" fill="rgba(0, 0, 0, 1)"></path><path d="M587.5 37.5L587.5 62.5M587.5 -12.5L587.5 12.5L587.5 37.5L612.5 62.5" stroke="rgba(0, 0, 0, 1)" stroke-width="4.17"></path><path d="M606.25 62.5 a6.25 6.25 0 1 0 12.5 0 a6.25 6.25 0 1 0 -12.5 0zM581.25 62.5 a6.25 6.25 0 1 0 12.5 0 a6.25 6.25 0 1 0 -12.5 0z" fill="rgba(0, 0, 0, 1)"></path><path d="M262.5 187.5L287.5 212.5L287.5 237.5L312.5 262.5L312.5 287.5M262.5 162.5L287.5 187.5M262.5 237.5L262.5 262.5M312.5 -12.5L312.5 12.5L312.5 37.5L312.5 62.5L312.5 87.5L312.5 112.5L287.5 137.5L262.5 162.5L262.5 187.5L262.5 212.5L262.5 237.5L287.5 262.5" stroke="rgba(0, 0, 0, 1)" stroke-width="4.17"></path><path d="M281.25 262.5 a6.25 6.25 0 1 0 12.5 0 a6.25 6.25 0 1 0 -12.5 0zM306.25 287.5 a6.25 6.25 0 1 0 12.5 0 a6.25 6.25 0 1 0 -12.5 0zM281.25 187.5 a6.25 6.25 0 1 0 12.5 0 a6.25 6.25 0 1 0 -12.5 0zM256.25 262.5 a6.25 6.25 0 1 0 12.5 0 a6.25 6.25 0 1 0 -12.5 0z" fill="rgba(0, 0, 0, 1)"></path><path d="M637.5 237.5L662.5 262.5L662.5 287.5M612.5 412.5L587.5 437.5L587.5 462.5M612.5 287.5L637.5 312.5L662.5 337.5M612.5 437.5L637.5 462.5M612.5 362.5L587.5 387.5L587.5 412.5L562.5 437.5L562.5 462.5M612.5 -12.5L612.5 12.5L612.5 37.5L637.5 62.5L637.5 87.5L637.5 112.5L637.5 137.5L637.5 162.5L637.5 187.5L637.5 212.5L637.5 237.5L637.5 262.5L612.5 287.5L612.5 312.5L612.5 337.5L612.5 362.5L612.5 387.5L612.5 412.5L612.5 437.5L612.5 462.5" stroke="rgba(0, 0, 0, 1)" stroke-width="4.17"></path><path d="M606.25 462.5 a6.25 6.25 0 1 0 12.5 0 a6.25 6.25 0 1 0 -12.5 0zM656.25 287.5 a6.25 6.25 0 1 0 12.5 0 a6.25 6.25 0 1 0 -12.5 0zM581.25 462.5 a6.25 6.25 0 1 0 12.5 0 a6.25 6.25 0 1 0 -12.5 0zM656.25 337.5 a6.25 6.25 0 1 0 12.5 0 a6.25 6.25 0 1 0 -12.5 0zM631.25 462.5 a6.25 6.25 0 1 0 12.5 0 a6.25 6.25 0 1 0 -12.5 0zM556.25 462.5 a6.25 6.25 0 1 0 12.5 0 a6.25 6.25 0 1 0 -12.5 0z" fill="rgba(0, 0, 0, 1)"></path><path d="M262.5 287.5L262.5 312.5M237.5 212.5L212.5 237.5L187.5 262.5L187.5 287.5L187.5 312.5L187.5 337.5L187.5 362.5M237.5 187.5L212.5 212.5L187.5 237.5L162.5 262.5M237.5 162.5L212.5 187.5L187.5 212.5L162.5 237.5L137.5 262.5M287.5 -12.5L287.5 12.5L287.5 37.5L287.5 62.5L287.5 87.5L287.5 112.5L262.5 137.5L237.5 162.5L237.5 187.5L237.5 212.5L237.5 237.5L237.5 262.5L262.5 287.5L287.5 312.5L312.5 337.5L312.5 362.5" stroke="rgba(0, 0, 0, 1)" stroke-width="4.17"></path><path d="M306.25 362.5 a6.25 6.25 0 1 0 12.5 0 a6.25 6.25 0 1 0 -12.5 0zM256.25 312.5 a6.25 6.25 0 1 0 12.5 0 a6.25 6.25 0 1 0 -12.5 0zM181.25 362.5 a6.25 6.25 0 1 0 12.5 0 a6.25 6.25 0 1 0 -12.5 0zM156.25 262.5 a6.25 6.25 0 1 0 12.5 0 a6.25 6.25 0 1 0 -12.5 0zM131.25 262.5 a6.25 6.25 0 1 0 12.5 0 a6.25 6.25 0 1 0 -12.5 0z" fill="rgba(0, 0, 0, 1)"></path><path d="M662.5 137.5L662.5 162.5L662.5 187.5L662.5 212.5L662.5 237.5M662.5 112.5L687.5 137.5M687.5 337.5L687.5 362.5L687.5 387.5M662.5 387.5L637.5 412.5M637.5 -12.5L637.5 12.5L637.5 37.5L662.5 62.5L662.5 87.5L662.5 112.5L662.5 137.5L687.5 162.5L687.5 187.5L687.5 212.5L687.5 237.5L687.5 262.5L687.5 287.5L687.5 312.5L687.5 337.5L662.5 362.5L662.5 387.5L662.5 412.5L662.5 437.5" stroke="rgba(97, 102, 107, 1)" stroke-width="4.17"></path><path d="M656.25 437.5 a6.25 6.25 0 1 0 12.5 0 a6.25 6.25 0 1 0 -12.5 0zM656.25 237.5 a6.25 6.25 0 1 0 12.5 0 a6.25 6.25 0 1 0 -12.5 0zM681.25 137.5 a6.25 6.25 0 1 0 12.5 0 a6.25 6.25 0 1 0 -12.5 0zM681.25 387.5 a6.25 6.25 0 1 0 12.5 0 a6.25 6.25 0 1 0 -12.5 0zM631.25 412.5 a6.25 6.25 0 1 0 12.5 0 a6.25 6.25 0 1 0 -12.5 0z" fill="rgba(97, 102, 107, 1)"></path><path d="M262.5 87.5L237.5 112.5M262.5 37.5L237.5 62.5L212.5 87.5L212.5 112.5L212.5 137.5M262.5 -12.5L262.5 12.5L262.5 37.5L262.5 62.5L262.5 87.5L262.5 112.5" stroke="rgba(97, 102, 107, 1)" stroke-width="4.17"></path><path d="M256.25 112.5 a6.25 6.25 0 1 0 12.5 0 a6.25 6.25 0 1 0 -12.5 0zM231.25 112.5 a6.25 6.25 0 1 0 12.5 0 a6.25 6.25 0 1 0 -12.5 0zM206.25 137.5 a6.25 6.25 0 1 0 12.5 0 a6.25 6.25 0 1 0 -12.5 0z" fill="rgba(97, 102, 107, 1)"></path><path d="M712.5 137.5L737.5 162.5L737.5 187.5L737.5 212.5L737.5 237.5L737.5 262.5L737.5 287.5L737.5 312.5M737.5 437.5L712.5 462.5M662.5 12.5L687.5 37.5M712.5 362.5L737.5 387.5L762.5 412.5L762.5 437.5L762.5 462.5M712.5 87.5L737.5 112.5L737.5 137.5M662.5 -12.5L662.5 12.5L662.5 37.5L687.5 62.5L712.5 87.5L712.5 112.5L712.5 137.5L712.5 162.5L712.5 187.5L712.5 212.5L712.5 237.5L712.5 262.5L712.5 287.5L712.5 312.5L712.5 337.5L712.5 362.5L712.5 387.5L737.5 412.5L737.5 437.5L737.5 462.5" stroke="rgba(97, 102, 107, 1)" stroke-width="4.17"></path><path d="M731.25 462.5 a6.25 6.25 0 1 0 12.5 0 a6.25 6.25 0 1 0 -12.5 0zM731.25 312.5 a6.25 6.25 0 1 0 12.5 0 a6.25 6.25 0 1 0 -12.5 0zM706.25 462.5 a6.25 6.25 0 1 0 12.5 0 a6.25 6.25 0 1 0 -12.5 0zM681.25 37.5 a6.25 6.25 0 1 0 12.5 0 a6.25 6.25 0 1 0 -12.5 0zM756.25 462.5 a6.25 6.25 0 1 0 12.5 0 a6.25 6.25 0 1 0 -12.5 0zM731.25 137.5 a6.25 6.25 0 1 0 12.5 0 a6.25 6.25 0 1 0 -12.5 0z" fill="rgba(97, 102, 107, 1)"></path><path d="M237.5 -12.5L237.5 12.5" stroke="rgba(0, 0, 0, 1)" stroke-width="4.17"></path><path d="M231.25 12.5 a6.25 6.25 0 1 0 12.5 0 a6.25 6.25 0 1 0 -12.5 0z" fill="rgba(0, 0, 0, 1)"></path></g></g><defs><mask id="SvgjsMask1591"><rect width="900" height="1000" fill="#ffffff"></rect></mask><mask id="SvgjsMask1592"><rect width="900" height="1000" fill="white"></rect><path d="M459.37 137.5 a3.13 3.13 0 1 0 6.26 0 a3.13 3.13 0 1 0 -6.26 0z" fill="black"></path><path d="M434.37 162.5 a3.13 3.13 0 1 0 6.26 0 a3.13 3.13 0 1 0 -6.26 0z" fill="black"></path><path d="M484.37 412.5 a3.13 3.13 0 1 0 6.26 0 a3.13 3.13 0 1 0 -6.26 0zM459.37 437.5 a3.13 3.13 0 1 0 6.26 0 a3.13 3.13 0 1 0 -6.26 0zM434.37 312.5 a3.13 3.13 0 1 0 6.26 0 a3.13 3.13 0 1 0 -6.26 0zM459.37 262.5 a3.13 3.13 0 1 0 6.26 0 a3.13 3.13 0 1 0 -6.26 0zM509.37 462.5 a3.13 3.13 0 1 0 6.26 0 a3.13 3.13 0 1 0 -6.26 0z" fill="black"></path><path d="M409.37 187.5 a3.13 3.13 0 1 0 6.26 0 a3.13 3.13 0 1 0 -6.26 0zM384.37 187.5 a3.13 3.13 0 1 0 6.26 0 a3.13 3.13 0 1 0 -6.26 0z" fill="black"></path><path d="M509.37 262.5 a3.13 3.13 0 1 0 6.26 0 a3.13 3.13 0 1 0 -6.26 0z" fill="black"></path><path d="M384.37 87.5 a3.13 3.13 0 1 0 6.26 0 a3.13 3.13 0 1 0 -6.26 0z" fill="black"></path><path d="M534.37 237.5 a3.13 3.13 0 1 0 6.26 0 a3.13 3.13 0 1 0 -6.26 0zM559.37 187.5 a3.13 3.13 0 1 0 6.26 0 a3.13 3.13 0 1 0 -6.26 0zM584.37 287.5 a3.13 3.13 0 1 0 6.26 0 a3.13 3.13 0 1 0 -6.26 0zM584.37 187.5 a3.13 3.13 0 1 0 6.26 0 a3.13 3.13 0 1 0 -6.26 0z" fill="black"></path><path d="M334.37 437.5 a3.13 3.13 0 1 0 6.26 0 a3.13 3.13 0 1 0 -6.26 0zM359.37 462.5 a3.13 3.13 0 1 0 6.26 0 a3.13 3.13 0 1 0 -6.26 0zM384.37 262.5 a3.13 3.13 0 1 0 6.26 0 a3.13 3.13 0 1 0 -6.26 0zM384.37 437.5 a3.13 3.13 0 1 0 6.26 0 a3.13 3.13 0 1 0 -6.26 0zM409.37 312.5 a3.13 3.13 0 1 0 6.26 0 a3.13 3.13 0 1 0 -6.26 0z" fill="black"></path><path d="M559.37 87.5 a3.13 3.13 0 1 0 6.26 0 a3.13 3.13 0 1 0 -6.26 0zM584.37 112.5 a3.13 3.13 0 1 0 6.26 0 a3.13 3.13 0 1 0 -6.26 0z" fill="black"></path><path d="M334.37 262.5 a3.13 3.13 0 1 0 6.26 0 a3.13 3.13 0 1 0 -6.26 0zM309.37 212.5 a3.13 3.13 0 1 0 6.26 0 a3.13 3.13 0 1 0 -6.26 0z" fill="black"></path><path d="M609.37 62.5 a3.13 3.13 0 1 0 6.26 0 a3.13 3.13 0 1 0 -6.26 0zM584.37 62.5 a3.13 3.13 0 1 0 6.26 0 a3.13 3.13 0 1 0 -6.26 0z" fill="black"></path><path d="M284.37 262.5 a3.13 3.13 0 1 0 6.26 0 a3.13 3.13 0 1 0 -6.26 0zM309.37 287.5 a3.13 3.13 0 1 0 6.26 0 a3.13 3.13 0 1 0 -6.26 0zM284.37 187.5 a3.13 3.13 0 1 0 6.26 0 a3.13 3.13 0 1 0 -6.26 0zM259.37 262.5 a3.13 3.13 0 1 0 6.26 0 a3.13 3.13 0 1 0 -6.26 0z" fill="black"></path><path d="M609.37 462.5 a3.13 3.13 0 1 0 6.26 0 a3.13 3.13 0 1 0 -6.26 0zM659.37 287.5 a3.13 3.13 0 1 0 6.26 0 a3.13 3.13 0 1 0 -6.26 0zM584.37 462.5 a3.13 3.13 0 1 0 6.26 0 a3.13 3.13 0 1 0 -6.26 0zM659.37 337.5 a3.13 3.13 0 1 0 6.26 0 a3.13 3.13 0 1 0 -6.26 0zM634.37 462.5 a3.13 3.13 0 1 0 6.26 0 a3.13 3.13 0 1 0 -6.26 0zM559.37 462.5 a3.13 3.13 0 1 0 6.26 0 a3.13 3.13 0 1 0 -6.26 0z" fill="black"></path><path d="M309.37 362.5 a3.13 3.13 0 1 0 6.26 0 a3.13 3.13 0 1 0 -6.26 0zM259.37 312.5 a3.13 3.13 0 1 0 6.26 0 a3.13 3.13 0 1 0 -6.26 0zM184.37 362.5 a3.13 3.13 0 1 0 6.26 0 a3.13 3.13 0 1 0 -6.26 0zM159.37 262.5 a3.13 3.13 0 1 0 6.26 0 a3.13 3.13 0 1 0 -6.26 0zM134.37 262.5 a3.13 3.13 0 1 0 6.26 0 a3.13 3.13 0 1 0 -6.26 0z" fill="black"></path><path d="M659.37 437.5 a3.13 3.13 0 1 0 6.26 0 a3.13 3.13 0 1 0 -6.26 0zM659.37 237.5 a3.13 3.13 0 1 0 6.26 0 a3.13 3.13 0 1 0 -6.26 0zM684.37 137.5 a3.13 3.13 0 1 0 6.26 0 a3.13 3.13 0 1 0 -6.26 0zM684.37 387.5 a3.13 3.13 0 1 0 6.26 0 a3.13 3.13 0 1 0 -6.26 0zM634.37 412.5 a3.13 3.13 0 1 0 6.26 0 a3.13 3.13 0 1 0 -6.26 0z" fill="black"></path><path d="M259.37 112.5 a3.13 3.13 0 1 0 6.26 0 a3.13 3.13 0 1 0 -6.26 0zM234.37 112.5 a3.13 3.13 0 1 0 6.26 0 a3.13 3.13 0 1 0 -6.26 0zM209.37 137.5 a3.13 3.13 0 1 0 6.26 0 a3.13 3.13 0 1 0 -6.26 0z" fill="black"></path><path d="M734.37 462.5 a3.13 3.13 0 1 0 6.26 0 a3.13 3.13 0 1 0 -6.26 0zM734.37 312.5 a3.13 3.13 0 1 0 6.26 0 a3.13 3.13 0 1 0 -6.26 0zM709.37 462.5 a3.13 3.13 0 1 0 6.26 0 a3.13 3.13 0 1 0 -6.26 0zM684.37 37.5 a3.13 3.13 0 1 0 6.26 0 a3.13 3.13 0 1 0 -6.26 0zM759.37 462.5 a3.13 3.13 0 1 0 6.26 0 a3.13 3.13 0 1 0 -6.26 0zM734.37 137.5 a3.13 3.13 0 1 0 6.26 0 a3.13 3.13 0 1 0 -6.26 0z" fill="black"></path><path d="M234.37 12.5 a3.13 3.13 0 1 0 6.26 0 a3.13 3.13 0 1 0 -6.26 0z" fill="black"></path></mask></defs></svg>