<svg xmlns="http://www.w3.org/2000/svg" version="1.1" xmlns:xlink="http://www.w3.org/1999/xlink" xmlns:svgjs="http://svgjs.dev/svgjs" width="480" height="900" preserveAspectRatio="none" viewBox="0 0 480 900"><g mask="url(&quot;#SvgjsMask2093&quot;)" fill="none"><g mask="url(&quot;#SvgjsMask2094&quot;)"><path d="M212.5 212.5L237.5 237.5L237.5 262.5M212.5 587.5L187.5 612.5L162.5 637.5L162.5 662.5M237.5 787.5L262.5 812.5L262.5 837.5L262.5 862.5M212.5 362.5L237.5 387.5L237.5 412.5L237.5 437.5L237.5 462.5L237.5 487.5L237.5 512.5L237.5 537.5M212.5 462.5L187.5 487.5L187.5 512.5L187.5 537.5L187.5 562.5M212.5 187.5L237.5 212.5L262.5 237.5L262.5 262.5M212.5 637.5L212.5 662.5L212.5 687.5L212.5 712.5M237.5 687.5L262.5 712.5M237.5 -12.5L237.5 12.5L237.5 37.5L237.5 62.5L237.5 87.5L237.5 112.5L237.5 137.5L212.5 162.5L212.5 187.5L212.5 212.5L212.5 237.5L212.5 262.5L212.5 287.5L212.5 312.5L212.5 337.5L212.5 362.5L212.5 387.5L212.5 412.5L212.5 437.5L212.5 462.5L212.5 487.5L212.5 512.5L212.5 537.5L212.5 562.5L212.5 587.5L212.5 612.5L212.5 637.5L237.5 662.5L237.5 687.5L237.5 712.5L237.5 737.5L237.5 762.5L237.5 787.5L237.5 812.5" stroke="rgba(0, 0, 0, 1)" stroke-width="4.17"></path><path d="M231.25 812.5 a6.25 6.25 0 1 0 12.5 0 a6.25 6.25 0 1 0 -12.5 0zM231.25 262.5 a6.25 6.25 0 1 0 12.5 0 a6.25 6.25 0 1 0 -12.5 0zM156.25 662.5 a6.25 6.25 0 1 0 12.5 0 a6.25 6.25 0 1 0 -12.5 0zM256.25 862.5 a6.25 6.25 0 1 0 12.5 0 a6.25 6.25 0 1 0 -12.5 0zM231.25 537.5 a6.25 6.25 0 1 0 12.5 0 a6.25 6.25 0 1 0 -12.5 0zM181.25 562.5 a6.25 6.25 0 1 0 12.5 0 a6.25 6.25 0 1 0 -12.5 0zM256.25 262.5 a6.25 6.25 0 1 0 12.5 0 a6.25 6.25 0 1 0 -12.5 0zM206.25 712.5 a6.25 6.25 0 1 0 12.5 0 a6.25 6.25 0 1 0 -12.5 0zM256.25 712.5 a6.25 6.25 0 1 0 12.5 0 a6.25 6.25 0 1 0 -12.5 0z" fill="rgba(0, 0, 0, 1)"></path><path d="M287.5 662.5L312.5 687.5L312.5 712.5L337.5 737.5L337.5 762.5M287.5 187.5L262.5 212.5M287.5 437.5L262.5 462.5M312.5 537.5L287.5 562.5L287.5 587.5M287.5 387.5L262.5 412.5L262.5 437.5M287.5 312.5L262.5 337.5L262.5 362.5M287.5 412.5L312.5 437.5L312.5 462.5L312.5 487.5M262.5 -12.5L262.5 12.5L262.5 37.5L262.5 62.5L262.5 87.5L262.5 112.5L287.5 137.5L287.5 162.5L287.5 187.5L287.5 212.5L287.5 237.5L287.5 262.5L287.5 287.5L287.5 312.5L287.5 337.5L287.5 362.5L287.5 387.5L287.5 412.5L287.5 437.5L287.5 462.5L287.5 487.5L312.5 512.5L312.5 537.5L312.5 562.5L312.5 587.5L312.5 612.5L287.5 637.5L287.5 662.5L287.5 687.5L287.5 712.5L287.5 737.5" stroke="rgba(0, 0, 0, 1)" stroke-width="4.17"></path><path d="M281.25 737.5 a6.25 6.25 0 1 0 12.5 0 a6.25 6.25 0 1 0 -12.5 0zM331.25 762.5 a6.25 6.25 0 1 0 12.5 0 a6.25 6.25 0 1 0 -12.5 0zM256.25 212.5 a6.25 6.25 0 1 0 12.5 0 a6.25 6.25 0 1 0 -12.5 0zM256.25 462.5 a6.25 6.25 0 1 0 12.5 0 a6.25 6.25 0 1 0 -12.5 0zM281.25 587.5 a6.25 6.25 0 1 0 12.5 0 a6.25 6.25 0 1 0 -12.5 0zM256.25 437.5 a6.25 6.25 0 1 0 12.5 0 a6.25 6.25 0 1 0 -12.5 0zM256.25 362.5 a6.25 6.25 0 1 0 12.5 0 a6.25 6.25 0 1 0 -12.5 0zM306.25 487.5 a6.25 6.25 0 1 0 12.5 0 a6.25 6.25 0 1 0 -12.5 0z" fill="rgba(0, 0, 0, 1)"></path><path d="M137.5 512.5L162.5 537.5L162.5 562.5M137.5 487.5L162.5 512.5M162.5 262.5L187.5 287.5L187.5 312.5L187.5 337.5L187.5 362.5M187.5 237.5L187.5 262.5M162.5 437.5L162.5 462.5L162.5 487.5M212.5 -12.5L212.5 12.5L212.5 37.5L212.5 62.5L212.5 87.5L212.5 112.5L212.5 137.5L187.5 162.5L187.5 187.5L187.5 212.5L187.5 237.5L162.5 262.5L162.5 287.5L162.5 312.5L162.5 337.5L162.5 362.5L162.5 387.5L162.5 412.5L162.5 437.5L137.5 462.5L137.5 487.5L137.5 512.5L137.5 537.5" stroke="rgba(0, 0, 0, 1)" stroke-width="4.17"></path><path d="M131.25 537.5 a6.25 6.25 0 1 0 12.5 0 a6.25 6.25 0 1 0 -12.5 0zM156.25 562.5 a6.25 6.25 0 1 0 12.5 0 a6.25 6.25 0 1 0 -12.5 0zM156.25 512.5 a6.25 6.25 0 1 0 12.5 0 a6.25 6.25 0 1 0 -12.5 0zM181.25 362.5 a6.25 6.25 0 1 0 12.5 0 a6.25 6.25 0 1 0 -12.5 0zM181.25 262.5 a6.25 6.25 0 1 0 12.5 0 a6.25 6.25 0 1 0 -12.5 0zM156.25 487.5 a6.25 6.25 0 1 0 12.5 0 a6.25 6.25 0 1 0 -12.5 0z" fill="rgba(0, 0, 0, 1)"></path><path d="M312.5 312.5L337.5 337.5L337.5 362.5L337.5 387.5L337.5 412.5L337.5 437.5M287.5 37.5L312.5 62.5L312.5 87.5L312.5 112.5M312.5 262.5L337.5 287.5M287.5 -12.5L287.5 12.5L287.5 37.5L287.5 62.5L287.5 87.5L287.5 112.5L312.5 137.5L312.5 162.5L312.5 187.5L312.5 212.5L312.5 237.5L312.5 262.5L312.5 287.5L312.5 312.5L312.5 337.5L312.5 362.5L312.5 387.5" stroke="rgba(0, 0, 0, 1)" stroke-width="4.17"></path><path d="M306.25 387.5 a6.25 6.25 0 1 0 12.5 0 a6.25 6.25 0 1 0 -12.5 0zM331.25 437.5 a6.25 6.25 0 1 0 12.5 0 a6.25 6.25 0 1 0 -12.5 0zM306.25 112.5 a6.25 6.25 0 1 0 12.5 0 a6.25 6.25 0 1 0 -12.5 0zM331.25 287.5 a6.25 6.25 0 1 0 12.5 0 a6.25 6.25 0 1 0 -12.5 0z" fill="rgba(0, 0, 0, 1)"></path><path d="M187.5 -12.5L187.5 12.5L187.5 37.5L187.5 62.5L187.5 87.5L187.5 112.5L187.5 137.5L162.5 162.5L162.5 187.5L162.5 212.5L162.5 237.5" stroke="rgba(0, 0, 0, 1)" stroke-width="4.17"></path><path d="M156.25 237.5 a6.25 6.25 0 1 0 12.5 0 a6.25 6.25 0 1 0 -12.5 0z" fill="rgba(0, 0, 0, 1)"></path><path d="M312.5 -12.5L312.5 12.5" stroke="rgba(97, 102, 107, 1)" stroke-width="4.17"></path><path d="M306.25 12.5 a6.25 6.25 0 1 0 12.5 0 a6.25 6.25 0 1 0 -12.5 0z" fill="rgba(97, 102, 107, 1)"></path><path d="M162.5 37.5L137.5 62.5L137.5 87.5L137.5 112.5M137.5 187.5L112.5 212.5L112.5 237.5M162.5 12.5L137.5 37.5M162.5 -12.5L162.5 12.5L162.5 37.5L162.5 62.5L162.5 87.5L162.5 112.5L162.5 137.5L137.5 162.5L137.5 187.5L137.5 212.5L137.5 237.5L137.5 262.5L137.5 287.5" stroke="rgba(97, 102, 107, 1)" stroke-width="4.17"></path><path d="M131.25 287.5 a6.25 6.25 0 1 0 12.5 0 a6.25 6.25 0 1 0 -12.5 0zM131.25 112.5 a6.25 6.25 0 1 0 12.5 0 a6.25 6.25 0 1 0 -12.5 0zM106.25 237.5 a6.25 6.25 0 1 0 12.5 0 a6.25 6.25 0 1 0 -12.5 0zM131.25 37.5 a6.25 6.25 0 1 0 12.5 0 a6.25 6.25 0 1 0 -12.5 0z" fill="rgba(97, 102, 107, 1)"></path><path d="M337.5 12.5L362.5 37.5M337.5 162.5L362.5 187.5L362.5 212.5L362.5 237.5L387.5 262.5M337.5 237.5L337.5 262.5M337.5 -12.5L337.5 12.5L337.5 37.5L337.5 62.5L337.5 87.5L337.5 112.5L337.5 137.5L337.5 162.5L337.5 187.5L337.5 212.5L337.5 237.5L362.5 262.5" stroke="rgba(0, 0, 0, 1)" stroke-width="4.17"></path><path d="M356.25 262.5 a6.25 6.25 0 1 0 12.5 0 a6.25 6.25 0 1 0 -12.5 0zM356.25 37.5 a6.25 6.25 0 1 0 12.5 0 a6.25 6.25 0 1 0 -12.5 0zM381.25 262.5 a6.25 6.25 0 1 0 12.5 0 a6.25 6.25 0 1 0 -12.5 0zM331.25 262.5 a6.25 6.25 0 1 0 12.5 0 a6.25 6.25 0 1 0 -12.5 0z" fill="rgba(0, 0, 0, 1)"></path><path d="M112.5 37.5L87.5 62.5L87.5 87.5L87.5 112.5M137.5 -12.5L112.5 12.5L112.5 37.5L112.5 62.5" stroke="rgba(97, 102, 107, 1)" stroke-width="4.17"></path><path d="M106.25 62.5 a6.25 6.25 0 1 0 12.5 0 a6.25 6.25 0 1 0 -12.5 0zM81.25 112.5 a6.25 6.25 0 1 0 12.5 0 a6.25 6.25 0 1 0 -12.5 0z" fill="rgba(97, 102, 107, 1)"></path></g></g><defs><mask id="SvgjsMask2093"><rect width="480" height="900" fill="#ffffff"></rect></mask><mask id="SvgjsMask2094"><rect width="480" height="900" fill="white"></rect><path d="M234.37 812.5 a3.13 3.13 0 1 0 6.26 0 a3.13 3.13 0 1 0 -6.26 0zM234.37 262.5 a3.13 3.13 0 1 0 6.26 0 a3.13 3.13 0 1 0 -6.26 0zM159.37 662.5 a3.13 3.13 0 1 0 6.26 0 a3.13 3.13 0 1 0 -6.26 0zM259.37 862.5 a3.13 3.13 0 1 0 6.26 0 a3.13 3.13 0 1 0 -6.26 0zM234.37 537.5 a3.13 3.13 0 1 0 6.26 0 a3.13 3.13 0 1 0 -6.26 0zM184.37 562.5 a3.13 3.13 0 1 0 6.26 0 a3.13 3.13 0 1 0 -6.26 0zM259.37 262.5 a3.13 3.13 0 1 0 6.26 0 a3.13 3.13 0 1 0 -6.26 0zM209.37 712.5 a3.13 3.13 0 1 0 6.26 0 a3.13 3.13 0 1 0 -6.26 0zM259.37 712.5 a3.13 3.13 0 1 0 6.26 0 a3.13 3.13 0 1 0 -6.26 0z" fill="black"></path><path d="M284.37 737.5 a3.13 3.13 0 1 0 6.26 0 a3.13 3.13 0 1 0 -6.26 0zM334.37 762.5 a3.13 3.13 0 1 0 6.26 0 a3.13 3.13 0 1 0 -6.26 0zM259.37 212.5 a3.13 3.13 0 1 0 6.26 0 a3.13 3.13 0 1 0 -6.26 0zM259.37 462.5 a3.13 3.13 0 1 0 6.26 0 a3.13 3.13 0 1 0 -6.26 0zM284.37 587.5 a3.13 3.13 0 1 0 6.26 0 a3.13 3.13 0 1 0 -6.26 0zM259.37 437.5 a3.13 3.13 0 1 0 6.26 0 a3.13 3.13 0 1 0 -6.26 0zM259.37 362.5 a3.13 3.13 0 1 0 6.26 0 a3.13 3.13 0 1 0 -6.26 0zM309.37 487.5 a3.13 3.13 0 1 0 6.26 0 a3.13 3.13 0 1 0 -6.26 0z" fill="black"></path><path d="M134.37 537.5 a3.13 3.13 0 1 0 6.26 0 a3.13 3.13 0 1 0 -6.26 0zM159.37 562.5 a3.13 3.13 0 1 0 6.26 0 a3.13 3.13 0 1 0 -6.26 0zM159.37 512.5 a3.13 3.13 0 1 0 6.26 0 a3.13 3.13 0 1 0 -6.26 0zM184.37 362.5 a3.13 3.13 0 1 0 6.26 0 a3.13 3.13 0 1 0 -6.26 0zM184.37 262.5 a3.13 3.13 0 1 0 6.26 0 a3.13 3.13 0 1 0 -6.26 0zM159.37 487.5 a3.13 3.13 0 1 0 6.26 0 a3.13 3.13 0 1 0 -6.26 0z" fill="black"></path><path d="M309.37 387.5 a3.13 3.13 0 1 0 6.26 0 a3.13 3.13 0 1 0 -6.26 0zM334.37 437.5 a3.13 3.13 0 1 0 6.26 0 a3.13 3.13 0 1 0 -6.26 0zM309.37 112.5 a3.13 3.13 0 1 0 6.26 0 a3.13 3.13 0 1 0 -6.26 0zM334.37 287.5 a3.13 3.13 0 1 0 6.26 0 a3.13 3.13 0 1 0 -6.26 0z" fill="black"></path><path d="M159.37 237.5 a3.13 3.13 0 1 0 6.26 0 a3.13 3.13 0 1 0 -6.26 0z" fill="black"></path><path d="M309.37 12.5 a3.13 3.13 0 1 0 6.26 0 a3.13 3.13 0 1 0 -6.26 0z" fill="black"></path><path d="M134.37 287.5 a3.13 3.13 0 1 0 6.26 0 a3.13 3.13 0 1 0 -6.26 0zM134.37 112.5 a3.13 3.13 0 1 0 6.26 0 a3.13 3.13 0 1 0 -6.26 0zM109.37 237.5 a3.13 3.13 0 1 0 6.26 0 a3.13 3.13 0 1 0 -6.26 0zM134.37 37.5 a3.13 3.13 0 1 0 6.26 0 a3.13 3.13 0 1 0 -6.26 0z" fill="black"></path><path d="M359.37 262.5 a3.13 3.13 0 1 0 6.26 0 a3.13 3.13 0 1 0 -6.26 0zM359.37 37.5 a3.13 3.13 0 1 0 6.26 0 a3.13 3.13 0 1 0 -6.26 0zM384.37 262.5 a3.13 3.13 0 1 0 6.26 0 a3.13 3.13 0 1 0 -6.26 0zM334.37 262.5 a3.13 3.13 0 1 0 6.26 0 a3.13 3.13 0 1 0 -6.26 0z" fill="black"></path><path d="M109.37 62.5 a3.13 3.13 0 1 0 6.26 0 a3.13 3.13 0 1 0 -6.26 0zM84.37 112.5 a3.13 3.13 0 1 0 6.26 0 a3.13 3.13 0 1 0 -6.26 0z" fill="black"></path></mask></defs></svg>