<svg xmlns="http://www.w3.org/2000/svg" version="1.1" xmlns:xlink="http://www.w3.org/1999/xlink" xmlns:svgjs="http://svgjs.dev/svgjs" width="1440" height="1000" preserveAspectRatio="none" viewBox="0 0 1440 1000"><g mask="url(&quot;#SvgjsMask1547&quot;)" fill="none"><g mask="url(&quot;#SvgjsMask1548&quot;)"><path d="M12.5 512.5L37.5 512.5M62.5 487.5L87.5 512.5L112.5 512.5L137.5 512.5M162.5 512.5L187.5 512.5L212.5 487.5L237.5 487.5L262.5 487.5M-12.5 512.5L12.5 512.5L37.5 487.5L62.5 487.5L87.5 487.5L112.5 487.5L137.5 487.5L162.5 512.5L187.5 537.5L212.5 537.5L237.5 537.5L262.5 537.5L287.5 537.5L312.5 537.5L337.5 537.5" stroke="rgba(0, 0, 0, 1)" stroke-width="4.17"></path><path d="M331.25 537.5 a6.25 6.25 0 1 0 12.5 0 a6.25 6.25 0 1 0 -12.5 0zM31.25 512.5 a6.25 6.25 0 1 0 12.5 0 a6.25 6.25 0 1 0 -12.5 0zM131.25 512.5 a6.25 6.25 0 1 0 12.5 0 a6.25 6.25 0 1 0 -12.5 0zM256.25 487.5 a6.25 6.25 0 1 0 12.5 0 a6.25 6.25 0 1 0 -12.5 0z" fill="rgba(0, 0, 0, 1)"></path><path d="M62.5 462.5L87.5 437.5L112.5 437.5L137.5 437.5L162.5 437.5L187.5 437.5M162.5 462.5L187.5 487.5M512.5 487.5L537.5 512.5M287.5 462.5L312.5 487.5L337.5 487.5L362.5 487.5L387.5 487.5L412.5 487.5L437.5 487.5M612.5 462.5L637.5 487.5L662.5 487.5M487.5 487.5L512.5 462.5M-12.5 487.5L12.5 487.5L37.5 462.5L62.5 462.5L87.5 462.5L112.5 462.5L137.5 462.5L162.5 462.5L187.5 462.5L212.5 462.5L237.5 462.5L262.5 462.5L287.5 462.5L312.5 462.5L337.5 462.5L362.5 462.5L387.5 462.5L412.5 462.5L437.5 462.5L462.5 462.5L487.5 487.5L512.5 487.5L537.5 487.5L562.5 462.5L587.5 462.5L612.5 462.5L637.5 462.5" stroke="rgba(0, 0, 0, 1)" stroke-width="4.17"></path><path d="M631.25 462.5 a6.25 6.25 0 1 0 12.5 0 a6.25 6.25 0 1 0 -12.5 0zM181.25 437.5 a6.25 6.25 0 1 0 12.5 0 a6.25 6.25 0 1 0 -12.5 0zM181.25 487.5 a6.25 6.25 0 1 0 12.5 0 a6.25 6.25 0 1 0 -12.5 0zM531.25 512.5 a6.25 6.25 0 1 0 12.5 0 a6.25 6.25 0 1 0 -12.5 0zM431.25 487.5 a6.25 6.25 0 1 0 12.5 0 a6.25 6.25 0 1 0 -12.5 0zM656.25 487.5 a6.25 6.25 0 1 0 12.5 0 a6.25 6.25 0 1 0 -12.5 0zM506.25 462.5 a6.25 6.25 0 1 0 12.5 0 a6.25 6.25 0 1 0 -12.5 0z" fill="rgba(0, 0, 0, 1)"></path><path d="M362.5 562.5L387.5 537.5L412.5 537.5L437.5 537.5L462.5 537.5M312.5 562.5L337.5 587.5L362.5 587.5L387.5 587.5M287.5 562.5L312.5 587.5M87.5 562.5L112.5 537.5M-12.5 537.5L12.5 537.5L37.5 537.5L62.5 562.5L87.5 562.5L112.5 562.5L137.5 537.5L162.5 537.5L187.5 562.5L212.5 562.5L237.5 562.5L262.5 562.5L287.5 562.5L312.5 562.5L337.5 562.5L362.5 562.5L387.5 562.5" stroke="rgba(97, 102, 107, 1)" stroke-width="4.17"></path><path d="M381.25 562.5 a6.25 6.25 0 1 0 12.5 0 a6.25 6.25 0 1 0 -12.5 0zM456.25 537.5 a6.25 6.25 0 1 0 12.5 0 a6.25 6.25 0 1 0 -12.5 0zM381.25 587.5 a6.25 6.25 0 1 0 12.5 0 a6.25 6.25 0 1 0 -12.5 0zM306.25 587.5 a6.25 6.25 0 1 0 12.5 0 a6.25 6.25 0 1 0 -12.5 0zM106.25 537.5 a6.25 6.25 0 1 0 12.5 0 a6.25 6.25 0 1 0 -12.5 0z" fill="rgba(97, 102, 107, 1)"></path><path d="M487.5 437.5L512.5 412.5L537.5 412.5L562.5 387.5M312.5 437.5L337.5 412.5L362.5 412.5L387.5 412.5L412.5 412.5L437.5 412.5L462.5 412.5L487.5 387.5L512.5 387.5L537.5 387.5M237.5 437.5L262.5 412.5L287.5 412.5L312.5 412.5M537.5 437.5L562.5 437.5L587.5 437.5M212.5 412.5L237.5 412.5L262.5 387.5M37.5 437.5L62.5 437.5M-12.5 462.5L12.5 462.5L37.5 437.5L62.5 412.5L87.5 412.5L112.5 412.5L137.5 412.5L162.5 412.5L187.5 412.5L212.5 412.5L237.5 437.5L262.5 437.5L287.5 437.5L312.5 437.5L337.5 437.5L362.5 437.5L387.5 437.5L412.5 437.5L437.5 437.5L462.5 437.5L487.5 437.5L512.5 437.5L537.5 437.5L562.5 412.5" stroke="rgba(97, 102, 107, 1)" stroke-width="4.17"></path><path d="M556.25 412.5 a6.25 6.25 0 1 0 12.5 0 a6.25 6.25 0 1 0 -12.5 0zM556.25 387.5 a6.25 6.25 0 1 0 12.5 0 a6.25 6.25 0 1 0 -12.5 0zM531.25 387.5 a6.25 6.25 0 1 0 12.5 0 a6.25 6.25 0 1 0 -12.5 0zM306.25 412.5 a6.25 6.25 0 1 0 12.5 0 a6.25 6.25 0 1 0 -12.5 0zM581.25 437.5 a6.25 6.25 0 1 0 12.5 0 a6.25 6.25 0 1 0 -12.5 0zM256.25 387.5 a6.25 6.25 0 1 0 12.5 0 a6.25 6.25 0 1 0 -12.5 0zM56.25 437.5 a6.25 6.25 0 1 0 12.5 0 a6.25 6.25 0 1 0 -12.5 0z" fill="rgba(97, 102, 107, 1)"></path><path d="M-12.5 562.5L12.5 562.5L37.5 562.5L62.5 587.5L87.5 587.5L112.5 587.5L137.5 587.5L162.5 587.5" stroke="rgba(0, 0, 0, 1)" stroke-width="4.17"></path><path d="M156.25 587.5 a6.25 6.25 0 1 0 12.5 0 a6.25 6.25 0 1 0 -12.5 0z" fill="rgba(0, 0, 0, 1)"></path><path d="M262.5 362.5L287.5 337.5L312.5 337.5L337.5 337.5L362.5 337.5L387.5 312.5M387.5 337.5L412.5 362.5L437.5 362.5M612.5 337.5L637.5 312.5L662.5 312.5M587.5 362.5L612.5 362.5M412.5 337.5L437.5 312.5L462.5 312.5L487.5 312.5M487.5 337.5L512.5 362.5M337.5 362.5L362.5 387.5L387.5 387.5L412.5 387.5M-12.5 437.5L12.5 437.5L37.5 412.5L62.5 387.5L87.5 387.5L112.5 387.5L137.5 387.5L162.5 387.5L187.5 387.5L212.5 387.5L237.5 362.5L262.5 362.5L287.5 362.5L312.5 362.5L337.5 362.5L362.5 362.5L387.5 337.5L412.5 337.5L437.5 337.5L462.5 337.5L487.5 337.5L512.5 337.5L537.5 362.5L562.5 362.5L587.5 362.5L612.5 337.5L637.5 337.5L662.5 337.5" stroke="rgba(97, 102, 107, 1)" stroke-width="4.17"></path><path d="M656.25 337.5 a6.25 6.25 0 1 0 12.5 0 a6.25 6.25 0 1 0 -12.5 0zM381.25 312.5 a6.25 6.25 0 1 0 12.5 0 a6.25 6.25 0 1 0 -12.5 0zM431.25 362.5 a6.25 6.25 0 1 0 12.5 0 a6.25 6.25 0 1 0 -12.5 0zM656.25 312.5 a6.25 6.25 0 1 0 12.5 0 a6.25 6.25 0 1 0 -12.5 0zM606.25 362.5 a6.25 6.25 0 1 0 12.5 0 a6.25 6.25 0 1 0 -12.5 0zM481.25 312.5 a6.25 6.25 0 1 0 12.5 0 a6.25 6.25 0 1 0 -12.5 0zM506.25 362.5 a6.25 6.25 0 1 0 12.5 0 a6.25 6.25 0 1 0 -12.5 0zM406.25 387.5 a6.25 6.25 0 1 0 12.5 0 a6.25 6.25 0 1 0 -12.5 0z" fill="rgba(97, 102, 107, 1)"></path><path d="M112.5 612.5L137.5 637.5L162.5 637.5M-12.5 587.5L12.5 587.5L37.5 587.5L62.5 612.5L87.5 612.5L112.5 612.5L137.5 612.5" stroke="rgba(97, 102, 107, 1)" stroke-width="4.17"></path><path d="M131.25 612.5 a6.25 6.25 0 1 0 12.5 0 a6.25 6.25 0 1 0 -12.5 0zM156.25 637.5 a6.25 6.25 0 1 0 12.5 0 a6.25 6.25 0 1 0 -12.5 0z" fill="rgba(97, 102, 107, 1)"></path><path d="M-12.5 412.5L12.5 412.5L37.5 387.5L62.5 362.5" stroke="rgba(0, 0, 0, 1)" stroke-width="4.17"></path><path d="M56.25 362.5 a6.25 6.25 0 1 0 12.5 0 a6.25 6.25 0 1 0 -12.5 0z" fill="rgba(0, 0, 0, 1)"></path><path d="M-12.5 612.5L12.5 612.5" stroke="rgba(97, 102, 107, 1)" stroke-width="4.17"></path><path d="M6.25 612.5 a6.25 6.25 0 1 0 12.5 0 a6.25 6.25 0 1 0 -12.5 0z" fill="rgba(97, 102, 107, 1)"></path><path d="M137.5 287.5L162.5 312.5L187.5 312.5M562.5 287.5L587.5 312.5L612.5 312.5M262.5 287.5L287.5 312.5M337.5 262.5L362.5 287.5L387.5 287.5M487.5 287.5L512.5 262.5L537.5 262.5L562.5 262.5L587.5 262.5L612.5 262.5L637.5 262.5L662.5 237.5M512.5 287.5L537.5 312.5L562.5 312.5L587.5 337.5M412.5 287.5L437.5 262.5L462.5 262.5L487.5 262.5M-12.5 387.5L12.5 387.5L37.5 362.5L62.5 337.5L87.5 337.5L112.5 312.5L137.5 287.5L162.5 287.5L187.5 287.5L212.5 287.5L237.5 287.5L262.5 287.5L287.5 287.5L312.5 287.5L337.5 262.5L362.5 262.5L387.5 262.5L412.5 287.5L437.5 287.5L462.5 287.5L487.5 287.5L512.5 287.5L537.5 287.5L562.5 287.5L587.5 287.5L612.5 287.5L637.5 287.5L662.5 287.5" stroke="rgba(97, 102, 107, 1)" stroke-width="4.17"></path><path d="M656.25 287.5 a6.25 6.25 0 1 0 12.5 0 a6.25 6.25 0 1 0 -12.5 0zM181.25 312.5 a6.25 6.25 0 1 0 12.5 0 a6.25 6.25 0 1 0 -12.5 0zM606.25 312.5 a6.25 6.25 0 1 0 12.5 0 a6.25 6.25 0 1 0 -12.5 0zM281.25 312.5 a6.25 6.25 0 1 0 12.5 0 a6.25 6.25 0 1 0 -12.5 0zM381.25 287.5 a6.25 6.25 0 1 0 12.5 0 a6.25 6.25 0 1 0 -12.5 0zM656.25 237.5 a6.25 6.25 0 1 0 12.5 0 a6.25 6.25 0 1 0 -12.5 0zM581.25 337.5 a6.25 6.25 0 1 0 12.5 0 a6.25 6.25 0 1 0 -12.5 0zM481.25 262.5 a6.25 6.25 0 1 0 12.5 0 a6.25 6.25 0 1 0 -12.5 0z" fill="rgba(97, 102, 107, 1)"></path><path d="M-12.5 637.5L12.5 637.5L37.5 637.5L62.5 637.5L87.5 637.5" stroke="rgba(97, 102, 107, 1)" stroke-width="4.17"></path><path d="M81.25 637.5 a6.25 6.25 0 1 0 12.5 0 a6.25 6.25 0 1 0 -12.5 0z" fill="rgba(97, 102, 107, 1)"></path><path d="M212.5 262.5L237.5 237.5L262.5 237.5L287.5 237.5L312.5 237.5M187.5 262.5L212.5 237.5M362.5 237.5L387.5 212.5L412.5 212.5L437.5 212.5L462.5 237.5M337.5 237.5L362.5 212.5L387.5 187.5L412.5 187.5M-12.5 362.5L12.5 362.5L37.5 337.5L62.5 312.5L87.5 312.5L112.5 287.5L137.5 262.5L162.5 262.5L187.5 262.5L212.5 262.5L237.5 262.5L262.5 262.5L287.5 262.5L312.5 262.5L337.5 237.5L362.5 237.5L387.5 237.5L412.5 237.5" stroke="rgba(97, 102, 107, 1)" stroke-width="4.17"></path><path d="M406.25 237.5 a6.25 6.25 0 1 0 12.5 0 a6.25 6.25 0 1 0 -12.5 0zM306.25 237.5 a6.25 6.25 0 1 0 12.5 0 a6.25 6.25 0 1 0 -12.5 0zM206.25 237.5 a6.25 6.25 0 1 0 12.5 0 a6.25 6.25 0 1 0 -12.5 0zM456.25 237.5 a6.25 6.25 0 1 0 12.5 0 a6.25 6.25 0 1 0 -12.5 0zM406.25 187.5 a6.25 6.25 0 1 0 12.5 0 a6.25 6.25 0 1 0 -12.5 0z" fill="rgba(97, 102, 107, 1)"></path><path d="M237.5 662.5L262.5 687.5L287.5 712.5M262.5 662.5L287.5 662.5L312.5 662.5M337.5 687.5L362.5 712.5L387.5 712.5L412.5 712.5L437.5 712.5M137.5 662.5L162.5 687.5L187.5 687.5L212.5 687.5L237.5 687.5M187.5 662.5L212.5 637.5L237.5 637.5L262.5 637.5L287.5 637.5L312.5 637.5L337.5 662.5M-12.5 662.5L12.5 662.5L37.5 662.5L62.5 662.5L87.5 662.5L112.5 662.5L137.5 662.5L162.5 662.5L187.5 662.5L212.5 662.5L237.5 662.5L262.5 662.5L287.5 687.5L312.5 687.5L337.5 687.5L362.5 687.5L387.5 687.5L412.5 687.5L437.5 687.5L462.5 687.5" stroke="rgba(0, 0, 0, 1)" stroke-width="4.17"></path><path d="M456.25 687.5 a6.25 6.25 0 1 0 12.5 0 a6.25 6.25 0 1 0 -12.5 0zM281.25 712.5 a6.25 6.25 0 1 0 12.5 0 a6.25 6.25 0 1 0 -12.5 0zM306.25 662.5 a6.25 6.25 0 1 0 12.5 0 a6.25 6.25 0 1 0 -12.5 0zM431.25 712.5 a6.25 6.25 0 1 0 12.5 0 a6.25 6.25 0 1 0 -12.5 0zM231.25 687.5 a6.25 6.25 0 1 0 12.5 0 a6.25 6.25 0 1 0 -12.5 0zM331.25 662.5 a6.25 6.25 0 1 0 12.5 0 a6.25 6.25 0 1 0 -12.5 0z" fill="rgba(0, 0, 0, 1)"></path><path d="M187.5 212.5L212.5 187.5L237.5 187.5M162.5 212.5L187.5 237.5M137.5 237.5L162.5 237.5M-12.5 337.5L12.5 337.5L37.5 312.5L62.5 287.5L87.5 287.5L112.5 262.5L137.5 237.5L162.5 212.5L187.5 212.5L212.5 212.5L237.5 212.5" stroke="rgba(0, 0, 0, 1)" stroke-width="4.17"></path><path d="M231.25 212.5 a6.25 6.25 0 1 0 12.5 0 a6.25 6.25 0 1 0 -12.5 0zM231.25 187.5 a6.25 6.25 0 1 0 12.5 0 a6.25 6.25 0 1 0 -12.5 0zM181.25 237.5 a6.25 6.25 0 1 0 12.5 0 a6.25 6.25 0 1 0 -12.5 0zM156.25 237.5 a6.25 6.25 0 1 0 12.5 0 a6.25 6.25 0 1 0 -12.5 0z" fill="rgba(0, 0, 0, 1)"></path><path d="M112.5 687.5L137.5 687.5M-12.5 687.5L12.5 687.5L37.5 687.5L62.5 687.5L87.5 687.5L112.5 687.5L137.5 712.5L162.5 712.5L187.5 712.5L212.5 712.5L237.5 712.5" stroke="rgba(0, 0, 0, 1)" stroke-width="4.17"></path><path d="M231.25 712.5 a6.25 6.25 0 1 0 12.5 0 a6.25 6.25 0 1 0 -12.5 0zM131.25 687.5 a6.25 6.25 0 1 0 12.5 0 a6.25 6.25 0 1 0 -12.5 0z" fill="rgba(0, 0, 0, 1)"></path><path d="M-12.5 312.5L12.5 312.5L37.5 287.5L62.5 262.5L87.5 262.5L112.5 237.5L137.5 212.5L162.5 187.5" stroke="rgba(0, 0, 0, 1)" stroke-width="4.17"></path><path d="M156.25 187.5 a6.25 6.25 0 1 0 12.5 0 a6.25 6.25 0 1 0 -12.5 0z" fill="rgba(0, 0, 0, 1)"></path><path d="M487.5 737.5L512.5 762.5M462.5 737.5L487.5 762.5L512.5 787.5L537.5 787.5L562.5 787.5M287.5 737.5L312.5 762.5L337.5 762.5L362.5 762.5L387.5 762.5M62.5 712.5L87.5 737.5L112.5 737.5M237.5 737.5L262.5 762.5L287.5 762.5L312.5 787.5L337.5 787.5L362.5 787.5L387.5 787.5L412.5 762.5L437.5 762.5L462.5 762.5M-12.5 712.5L12.5 712.5L37.5 712.5L62.5 712.5L87.5 712.5L112.5 712.5L137.5 737.5L162.5 737.5L187.5 737.5L212.5 737.5L237.5 737.5L262.5 737.5L287.5 737.5L312.5 737.5L337.5 737.5L362.5 737.5L387.5 737.5L412.5 737.5L437.5 737.5L462.5 737.5L487.5 737.5L512.5 737.5" stroke="rgba(97, 102, 107, 1)" stroke-width="4.17"></path><path d="M506.25 737.5 a6.25 6.25 0 1 0 12.5 0 a6.25 6.25 0 1 0 -12.5 0zM506.25 762.5 a6.25 6.25 0 1 0 12.5 0 a6.25 6.25 0 1 0 -12.5 0zM556.25 787.5 a6.25 6.25 0 1 0 12.5 0 a6.25 6.25 0 1 0 -12.5 0zM381.25 762.5 a6.25 6.25 0 1 0 12.5 0 a6.25 6.25 0 1 0 -12.5 0zM106.25 737.5 a6.25 6.25 0 1 0 12.5 0 a6.25 6.25 0 1 0 -12.5 0zM456.25 762.5 a6.25 6.25 0 1 0 12.5 0 a6.25 6.25 0 1 0 -12.5 0z" fill="rgba(97, 102, 107, 1)"></path><path d="M487.5 162.5L512.5 187.5M337.5 162.5L362.5 187.5M262.5 162.5L287.5 187.5L312.5 187.5L337.5 187.5M437.5 162.5L462.5 187.5M-12.5 287.5L12.5 287.5L37.5 262.5L62.5 237.5L87.5 237.5L112.5 212.5L137.5 187.5L162.5 162.5L187.5 162.5L212.5 162.5L237.5 162.5L262.5 162.5L287.5 162.5L312.5 162.5L337.5 162.5L362.5 162.5L387.5 162.5L412.5 162.5L437.5 162.5L462.5 162.5L487.5 162.5L512.5 162.5" stroke="rgba(0, 0, 0, 1)" stroke-width="4.17"></path><path d="M506.25 162.5 a6.25 6.25 0 1 0 12.5 0 a6.25 6.25 0 1 0 -12.5 0zM506.25 187.5 a6.25 6.25 0 1 0 12.5 0 a6.25 6.25 0 1 0 -12.5 0zM356.25 187.5 a6.25 6.25 0 1 0 12.5 0 a6.25 6.25 0 1 0 -12.5 0zM331.25 187.5 a6.25 6.25 0 1 0 12.5 0 a6.25 6.25 0 1 0 -12.5 0zM456.25 187.5 a6.25 6.25 0 1 0 12.5 0 a6.25 6.25 0 1 0 -12.5 0z" fill="rgba(0, 0, 0, 1)"></path><path d="M162.5 762.5L187.5 787.5M62.5 762.5L87.5 787.5L112.5 787.5M37.5 762.5L62.5 737.5M-12.5 737.5L12.5 737.5L37.5 762.5L62.5 762.5L87.5 762.5L112.5 762.5L137.5 762.5L162.5 762.5L187.5 762.5" stroke="rgba(97, 102, 107, 1)" stroke-width="4.17"></path><path d="M181.25 762.5 a6.25 6.25 0 1 0 12.5 0 a6.25 6.25 0 1 0 -12.5 0zM181.25 787.5 a6.25 6.25 0 1 0 12.5 0 a6.25 6.25 0 1 0 -12.5 0zM106.25 787.5 a6.25 6.25 0 1 0 12.5 0 a6.25 6.25 0 1 0 -12.5 0zM56.25 737.5 a6.25 6.25 0 1 0 12.5 0 a6.25 6.25 0 1 0 -12.5 0z" fill="rgba(97, 102, 107, 1)"></path><path d="M387.5 137.5L412.5 112.5L437.5 112.5L462.5 112.5L487.5 112.5L512.5 87.5L537.5 87.5M262.5 137.5L287.5 112.5L312.5 112.5L337.5 112.5L362.5 112.5M237.5 137.5L262.5 112.5L287.5 87.5L312.5 87.5M187.5 137.5L212.5 112.5L237.5 112.5L262.5 87.5M537.5 112.5L562.5 137.5L587.5 137.5L612.5 137.5L637.5 137.5M487.5 137.5L512.5 137.5L537.5 137.5M-12.5 262.5L12.5 262.5L37.5 237.5L62.5 212.5L87.5 212.5L112.5 187.5L137.5 162.5L162.5 137.5L187.5 137.5L212.5 137.5L237.5 137.5L262.5 137.5L287.5 137.5L312.5 137.5L337.5 137.5L362.5 137.5L387.5 137.5L412.5 137.5L437.5 137.5L462.5 137.5L487.5 137.5L512.5 112.5L537.5 112.5L562.5 112.5" stroke="rgba(0, 0, 0, 1)" stroke-width="4.17"></path><path d="M556.25 112.5 a6.25 6.25 0 1 0 12.5 0 a6.25 6.25 0 1 0 -12.5 0zM531.25 87.5 a6.25 6.25 0 1 0 12.5 0 a6.25 6.25 0 1 0 -12.5 0zM356.25 112.5 a6.25 6.25 0 1 0 12.5 0 a6.25 6.25 0 1 0 -12.5 0zM306.25 87.5 a6.25 6.25 0 1 0 12.5 0 a6.25 6.25 0 1 0 -12.5 0zM256.25 87.5 a6.25 6.25 0 1 0 12.5 0 a6.25 6.25 0 1 0 -12.5 0zM631.25 137.5 a6.25 6.25 0 1 0 12.5 0 a6.25 6.25 0 1 0 -12.5 0zM531.25 137.5 a6.25 6.25 0 1 0 12.5 0 a6.25 6.25 0 1 0 -12.5 0z" fill="rgba(0, 0, 0, 1)"></path></g></g><defs><mask id="SvgjsMask1547"><rect width="1440" height="1000" fill="#ffffff"></rect></mask><mask id="SvgjsMask1548"><rect width="1440" height="1000" fill="white"></rect><path d="M334.37 537.5 a3.13 3.13 0 1 0 6.26 0 a3.13 3.13 0 1 0 -6.26 0zM34.37 512.5 a3.13 3.13 0 1 0 6.26 0 a3.13 3.13 0 1 0 -6.26 0zM134.37 512.5 a3.13 3.13 0 1 0 6.26 0 a3.13 3.13 0 1 0 -6.26 0zM259.37 487.5 a3.13 3.13 0 1 0 6.26 0 a3.13 3.13 0 1 0 -6.26 0z" fill="black"></path><path d="M634.37 462.5 a3.13 3.13 0 1 0 6.26 0 a3.13 3.13 0 1 0 -6.26 0zM184.37 437.5 a3.13 3.13 0 1 0 6.26 0 a3.13 3.13 0 1 0 -6.26 0zM184.37 487.5 a3.13 3.13 0 1 0 6.26 0 a3.13 3.13 0 1 0 -6.26 0zM534.37 512.5 a3.13 3.13 0 1 0 6.26 0 a3.13 3.13 0 1 0 -6.26 0zM434.37 487.5 a3.13 3.13 0 1 0 6.26 0 a3.13 3.13 0 1 0 -6.26 0zM659.37 487.5 a3.13 3.13 0 1 0 6.26 0 a3.13 3.13 0 1 0 -6.26 0zM509.37 462.5 a3.13 3.13 0 1 0 6.26 0 a3.13 3.13 0 1 0 -6.26 0z" fill="black"></path><path d="M384.37 562.5 a3.13 3.13 0 1 0 6.26 0 a3.13 3.13 0 1 0 -6.26 0zM459.37 537.5 a3.13 3.13 0 1 0 6.26 0 a3.13 3.13 0 1 0 -6.26 0zM384.37 587.5 a3.13 3.13 0 1 0 6.26 0 a3.13 3.13 0 1 0 -6.26 0zM309.37 587.5 a3.13 3.13 0 1 0 6.26 0 a3.13 3.13 0 1 0 -6.26 0zM109.37 537.5 a3.13 3.13 0 1 0 6.26 0 a3.13 3.13 0 1 0 -6.26 0z" fill="black"></path><path d="M559.37 412.5 a3.13 3.13 0 1 0 6.26 0 a3.13 3.13 0 1 0 -6.26 0zM559.37 387.5 a3.13 3.13 0 1 0 6.26 0 a3.13 3.13 0 1 0 -6.26 0zM534.37 387.5 a3.13 3.13 0 1 0 6.26 0 a3.13 3.13 0 1 0 -6.26 0zM309.37 412.5 a3.13 3.13 0 1 0 6.26 0 a3.13 3.13 0 1 0 -6.26 0zM584.37 437.5 a3.13 3.13 0 1 0 6.26 0 a3.13 3.13 0 1 0 -6.26 0zM259.37 387.5 a3.13 3.13 0 1 0 6.26 0 a3.13 3.13 0 1 0 -6.26 0zM59.37 437.5 a3.13 3.13 0 1 0 6.26 0 a3.13 3.13 0 1 0 -6.26 0z" fill="black"></path><path d="M159.37 587.5 a3.13 3.13 0 1 0 6.26 0 a3.13 3.13 0 1 0 -6.26 0z" fill="black"></path><path d="M659.37 337.5 a3.13 3.13 0 1 0 6.26 0 a3.13 3.13 0 1 0 -6.26 0zM384.37 312.5 a3.13 3.13 0 1 0 6.26 0 a3.13 3.13 0 1 0 -6.26 0zM434.37 362.5 a3.13 3.13 0 1 0 6.26 0 a3.13 3.13 0 1 0 -6.26 0zM659.37 312.5 a3.13 3.13 0 1 0 6.26 0 a3.13 3.13 0 1 0 -6.26 0zM609.37 362.5 a3.13 3.13 0 1 0 6.26 0 a3.13 3.13 0 1 0 -6.26 0zM484.37 312.5 a3.13 3.13 0 1 0 6.26 0 a3.13 3.13 0 1 0 -6.26 0zM509.37 362.5 a3.13 3.13 0 1 0 6.26 0 a3.13 3.13 0 1 0 -6.26 0zM409.37 387.5 a3.13 3.13 0 1 0 6.26 0 a3.13 3.13 0 1 0 -6.26 0z" fill="black"></path><path d="M134.37 612.5 a3.13 3.13 0 1 0 6.26 0 a3.13 3.13 0 1 0 -6.26 0zM159.37 637.5 a3.13 3.13 0 1 0 6.26 0 a3.13 3.13 0 1 0 -6.26 0z" fill="black"></path><path d="M59.37 362.5 a3.13 3.13 0 1 0 6.26 0 a3.13 3.13 0 1 0 -6.26 0z" fill="black"></path><path d="M9.37 612.5 a3.13 3.13 0 1 0 6.26 0 a3.13 3.13 0 1 0 -6.26 0z" fill="black"></path><path d="M659.37 287.5 a3.13 3.13 0 1 0 6.26 0 a3.13 3.13 0 1 0 -6.26 0zM184.37 312.5 a3.13 3.13 0 1 0 6.26 0 a3.13 3.13 0 1 0 -6.26 0zM609.37 312.5 a3.13 3.13 0 1 0 6.26 0 a3.13 3.13 0 1 0 -6.26 0zM284.37 312.5 a3.13 3.13 0 1 0 6.26 0 a3.13 3.13 0 1 0 -6.26 0zM384.37 287.5 a3.13 3.13 0 1 0 6.26 0 a3.13 3.13 0 1 0 -6.26 0zM659.37 237.5 a3.13 3.13 0 1 0 6.26 0 a3.13 3.13 0 1 0 -6.26 0zM584.37 337.5 a3.13 3.13 0 1 0 6.26 0 a3.13 3.13 0 1 0 -6.26 0zM484.37 262.5 a3.13 3.13 0 1 0 6.26 0 a3.13 3.13 0 1 0 -6.26 0z" fill="black"></path><path d="M84.37 637.5 a3.13 3.13 0 1 0 6.26 0 a3.13 3.13 0 1 0 -6.26 0z" fill="black"></path><path d="M409.37 237.5 a3.13 3.13 0 1 0 6.26 0 a3.13 3.13 0 1 0 -6.26 0zM309.37 237.5 a3.13 3.13 0 1 0 6.26 0 a3.13 3.13 0 1 0 -6.26 0zM209.37 237.5 a3.13 3.13 0 1 0 6.26 0 a3.13 3.13 0 1 0 -6.26 0zM459.37 237.5 a3.13 3.13 0 1 0 6.26 0 a3.13 3.13 0 1 0 -6.26 0zM409.37 187.5 a3.13 3.13 0 1 0 6.26 0 a3.13 3.13 0 1 0 -6.26 0z" fill="black"></path><path d="M459.37 687.5 a3.13 3.13 0 1 0 6.26 0 a3.13 3.13 0 1 0 -6.26 0zM284.37 712.5 a3.13 3.13 0 1 0 6.26 0 a3.13 3.13 0 1 0 -6.26 0zM309.37 662.5 a3.13 3.13 0 1 0 6.26 0 a3.13 3.13 0 1 0 -6.26 0zM434.37 712.5 a3.13 3.13 0 1 0 6.26 0 a3.13 3.13 0 1 0 -6.26 0zM234.37 687.5 a3.13 3.13 0 1 0 6.26 0 a3.13 3.13 0 1 0 -6.26 0zM334.37 662.5 a3.13 3.13 0 1 0 6.26 0 a3.13 3.13 0 1 0 -6.26 0z" fill="black"></path><path d="M234.37 212.5 a3.13 3.13 0 1 0 6.26 0 a3.13 3.13 0 1 0 -6.26 0zM234.37 187.5 a3.13 3.13 0 1 0 6.26 0 a3.13 3.13 0 1 0 -6.26 0zM184.37 237.5 a3.13 3.13 0 1 0 6.26 0 a3.13 3.13 0 1 0 -6.26 0zM159.37 237.5 a3.13 3.13 0 1 0 6.26 0 a3.13 3.13 0 1 0 -6.26 0z" fill="black"></path><path d="M234.37 712.5 a3.13 3.13 0 1 0 6.26 0 a3.13 3.13 0 1 0 -6.26 0zM134.37 687.5 a3.13 3.13 0 1 0 6.26 0 a3.13 3.13 0 1 0 -6.26 0z" fill="black"></path><path d="M159.37 187.5 a3.13 3.13 0 1 0 6.26 0 a3.13 3.13 0 1 0 -6.26 0z" fill="black"></path><path d="M509.37 737.5 a3.13 3.13 0 1 0 6.26 0 a3.13 3.13 0 1 0 -6.26 0zM509.37 762.5 a3.13 3.13 0 1 0 6.26 0 a3.13 3.13 0 1 0 -6.26 0zM559.37 787.5 a3.13 3.13 0 1 0 6.26 0 a3.13 3.13 0 1 0 -6.26 0zM384.37 762.5 a3.13 3.13 0 1 0 6.26 0 a3.13 3.13 0 1 0 -6.26 0zM109.37 737.5 a3.13 3.13 0 1 0 6.26 0 a3.13 3.13 0 1 0 -6.26 0zM459.37 762.5 a3.13 3.13 0 1 0 6.26 0 a3.13 3.13 0 1 0 -6.26 0z" fill="black"></path><path d="M509.37 162.5 a3.13 3.13 0 1 0 6.26 0 a3.13 3.13 0 1 0 -6.26 0zM509.37 187.5 a3.13 3.13 0 1 0 6.26 0 a3.13 3.13 0 1 0 -6.26 0zM359.37 187.5 a3.13 3.13 0 1 0 6.26 0 a3.13 3.13 0 1 0 -6.26 0zM334.37 187.5 a3.13 3.13 0 1 0 6.26 0 a3.13 3.13 0 1 0 -6.26 0zM459.37 187.5 a3.13 3.13 0 1 0 6.26 0 a3.13 3.13 0 1 0 -6.26 0z" fill="black"></path><path d="M184.37 762.5 a3.13 3.13 0 1 0 6.26 0 a3.13 3.13 0 1 0 -6.26 0zM184.37 787.5 a3.13 3.13 0 1 0 6.26 0 a3.13 3.13 0 1 0 -6.26 0zM109.37 787.5 a3.13 3.13 0 1 0 6.26 0 a3.13 3.13 0 1 0 -6.26 0zM59.37 737.5 a3.13 3.13 0 1 0 6.26 0 a3.13 3.13 0 1 0 -6.26 0z" fill="black"></path><path d="M559.37 112.5 a3.13 3.13 0 1 0 6.26 0 a3.13 3.13 0 1 0 -6.26 0zM534.37 87.5 a3.13 3.13 0 1 0 6.26 0 a3.13 3.13 0 1 0 -6.26 0zM359.37 112.5 a3.13 3.13 0 1 0 6.26 0 a3.13 3.13 0 1 0 -6.26 0zM309.37 87.5 a3.13 3.13 0 1 0 6.26 0 a3.13 3.13 0 1 0 -6.26 0zM259.37 87.5 a3.13 3.13 0 1 0 6.26 0 a3.13 3.13 0 1 0 -6.26 0zM634.37 137.5 a3.13 3.13 0 1 0 6.26 0 a3.13 3.13 0 1 0 -6.26 0zM534.37 137.5 a3.13 3.13 0 1 0 6.26 0 a3.13 3.13 0 1 0 -6.26 0z" fill="black"></path></mask></defs></svg>