<?xml version="1.0" ?><svg xmlns="http://www.w3.org/2000/svg" xmlns:xlink="http://www.w3.org/1999/xlink" xmlns:svgjs="http://svgjs.dev/svgjs" version="1.1" width="1440" height="250" preserveAspectRatio="none" viewBox="0 0 1440 250" transform="rotate(90)"><g mask="url(&quot;#SvgjsMask1012&quot;)" fill="none"><path d="M14 250L264 0L397.5 0L147.5 250z" fill="url(&quot;#SvgjsLinearGradient1013&quot;)"/><path d="M266.6 250L516.6 0L704.1 0L454.1 250z" fill="url(&quot;#SvgjsLinearGradient1013&quot;)"/><path d="M479.20000000000005 250L729.2 0L790.7 0L540.7 250z" fill="url(&quot;#SvgjsLinearGradient1013&quot;)"/><path d="M719.8000000000001 250L969.8000000000001 0L1301.3000000000002 0L1051.3000000000002 250z" fill="url(&quot;#SvgjsLinearGradient1013&quot;)"/><path d="M1425 250L1175 0L1073 0L1323 250z" fill="url(&quot;#SvgjsLinearGradient1014&quot;)"/><path d="M1176.4 250L926.4000000000001 0L809.4000000000001 0L1059.4 250z" fill="url(&quot;#SvgjsLinearGradient1014&quot;)"/><path d="M957.8 250L707.8 0L607.3 0L857.3 250z" fill="url(&quot;#SvgjsLinearGradient1014&quot;)"/><path d="M696.1999999999999 250L446.19999999999993 0L204.69999999999993 0L454.69999999999993 250z" fill="url(&quot;#SvgjsLinearGradient1014&quot;)"/><path d="M1211.9872618673953 250L1440 21.98726186739526L1440 250z" fill="url(&quot;#SvgjsLinearGradient1013&quot;)"/><path d="M0 250L228.01273813260474 250L 0 21.98726186739526z" fill="url(&quot;#SvgjsLinearGradient1014&quot;)"/></g><defs><mask id="SvgjsMask1012"><rect width="1440" height="250" fill="#ffffff"/></mask><linearGradient x1="0%" y1="100%" x2="100%" y2="0%" id="SvgjsLinearGradient1013"><stop stop-color="rgba(15, 185, 118, 0.2)" offset="0"/><stop stop-opacity="0" stop-color="rgba(15, 185, 118, 0.2)" offset="0.66"/></linearGradient><linearGradient x1="100%" y1="100%" x2="0%" y2="0%" id="SvgjsLinearGradient1014"><stop stop-color="rgba(15, 185, 118, 0.2)" offset="0"/><stop stop-opacity="0" stop-color="rgba(15, 185, 118, 0.2)" offset="0.66"/></linearGradient></defs></svg>